<?xml version="1.0" encoding="utf-8"?>
<!-- Generator: Adobe Illustrator 27.3.1, SVG Export Plug-In . SVG Version: 6.00 Build 0)  -->
<svg version="1.1" id="Layer_1" xmlns="http://www.w3.org/2000/svg" xmlns:xlink="http://www.w3.org/1999/xlink" x="0px" y="0px"
	 viewBox="0 0 222 150" style="enable-background:new 0 0 222 150;" xml:space="preserve">
<style type="text/css">
	.st0{fill:#FFFFFF;}
</style>
<g>
	<path d="M55.6,146.6L43.4,91.2l19.7-16.4L28.2,41.1L77.9,3.5l48.6,20.4v13.8l66.5-16.6v114.3l-78.3-2.4L55.6,146.6z M45.7,92
		l11.5,52.1l57.2-13.2l0.1,0l76.3,2.3V23.7l-66.5,16.6v-15L78.2,5.9L31.4,41.3L66.2,75L45.7,92z"/>
</g>
<g>
	<path d="M38.6,41.9l40.3-30.5l40.6,17.1v18L186,29.9v98.3c-24.1-0.7-48.1-1.5-72.2-2.2c-14.8,4-38.2,8-53,12L51,93.5l21.9-18.4
		L38.6,41.9z"/>
</g>
<g>
	<path class="st0" d="M113.1,85.5l-21.4-4.8c-0.4-0.1-0.8,0.2-0.9,0.6c-0.2,1-0.4,2.2-0.5,3.4c-0.1,1.4-0.1,2.7,0,3.8
		c0,0.4,0.4,0.7,0.8,0.7c1.3,0,2.7,0,4-0.1c0.5,0,0.9,0.5,0.7,1l-5.3,15.7c-0.1,0.3,0,0.7,0.3,0.9c0.3,0.2,0.6,0.4,1,0.5
		c2.5,1.1,4.9,0.7,6.3,0.4c0.3-0.1,0.5-0.3,0.6-0.6l2.5-17.3c0.1-0.4,0.4-0.6,0.7-0.6l10.6-0.2c0.3,0,0.6-0.2,0.7-0.5
		c0.1-0.2,0.2-0.5,0.3-0.8c0.1-0.5,0.2-0.9,0.2-1.3C113.7,85.9,113.5,85.5,113.1,85.5z"/>
</g>
<g>
	<path class="st0" d="M108,90.8c0-0.2,0.2-0.3,0.3-0.3c0.6,0,1.3,0,2.1,0.1c1.2,0.2,2.1,0.6,2.8,1c0.1,0.1,0.2,0.3,0.2,0.4
		c-0.5,1.8-1,3.8-1.4,6.1c-0.7,4-0.7,7.6-0.6,10.6c0,0.1,0.1,0.2,0.2,0.3c0.5,0.2,1.2,0.5,2.2,0.6c1,0.1,1.8,0,2.3-0.1
		c0.1,0,0.2-0.1,0.3-0.3c1-3.7,2-7.5,2.9-11.5c1.4-5.9,2.6-11.6,3.6-17.1c0-0.2,0.2-0.3,0.5-0.3c1,0.3,2.1,0.7,3.3,1.4
		c0.9,0.5,1.7,1,2.3,1.5c0.1,0.1,0.2,0.3,0.1,0.4c-1.7,5-3.6,10.1-5.5,15.4c-1.9,5-3.8,9.8-5.8,14.5c-0.1,0.1-0.2,0.2-0.3,0.2
		c-1.4,0-3-0.2-4.8-0.5c-1.7-0.3-3.1-0.8-4.4-1.2c-0.1,0-0.2-0.2-0.2-0.3c-0.2-2.6-0.4-5.4-0.5-8.3C107.5,98.8,107.6,94.6,108,90.8z
		"/>
</g>
<g>
	<path class="st0" d="M153.8,51.9L136.1,58c-0.4,0.1-0.7,0.5-0.6,0.9l0.2,4c0,0.5,0.5,0.9,1,0.9l1.7-0.2c0.6-0.1,1.2,0.5,1,1.2
		c-0.8,3.3-1.7,6.6-2.6,10.1c-1.3,4.5-2.6,8.7-4,12.8c-0.1,0.4,0,0.9,0.4,1.1c1.2,0.7,2.7,1.5,4.4,2.2c1.5,0.5,2.8,0.9,4,1.1
		c0.5,0.1,1.1-0.3,1.1-0.8c0.3-3.7,0.6-7.6,0.8-11.5c0.3-5.4,0.5-10.7,0.6-15.8c0-0.5,0.4-0.9,0.8-0.9l7.9-0.9
		c0.4,0,0.8-0.4,0.8-0.8l1.4-8.3C155.1,52.2,154.5,51.6,153.8,51.9z"/>
</g>
<g>
	<path class="st0" d="M117.2,83.6c0,0.2,0,0.4,0.1,0.5c0.1,0.1,0.3,0.3,0.6,0.4c0.3,0.2,0.7,0.2,0.9,0.2c0.2,0,0.4-0.1,0.5-0.3
		c1-2.2,2.1-4.5,3.1-6.8c0.1-0.3,0.5-0.4,0.8-0.2c2.7,1.7,5.2,3.2,7.7,4.6c0.2,0.1,0.4,0.1,0.5,0c0.2-0.1,0.4-0.2,0.6-0.5
		c0.3-0.3,0.4-0.6,0.4-0.9c0-0.2,0-0.4-0.2-0.6c-2.5-2.1-5-4.3-7.5-6.6c-0.2-0.2-0.3-0.5-0.1-0.7c1.2-2.4,2.4-4.8,3.6-7.2
		c0.1-0.3,0-0.6-0.3-0.8c-1.2-0.6-2.5-1.1-4.2-1.3c-0.1,0-0.2,0-0.3,0c-0.3,0-0.5,0.1-0.6,0.4c-0.6,1.6-1.3,3.4-1.9,5.2
		c-0.1,0.4-0.6,0.5-0.9,0.2c-1.6-1.5-3.2-3-4.8-4.5c-0.2-0.2-0.6-0.2-0.8,0c-0.9,1-1.7,2.2-2.4,3.7c0,0.1-0.1,0.2-0.1,0.3
		c-0.1,0.2,0,0.5,0.2,0.7c2.1,1.6,4.4,3.3,6.8,4.9c0.2,0.1,0.3,0.4,0.2,0.6C118.5,78.1,117.8,80.9,117.2,83.6z"/>
</g>
<g>
	<path class="st0" d="M176.4,107.3c0.3-0.1,0.4-0.5,0.4-0.9l-1.8-9l-5.8-31.2l-0.9-4.6c-0.1-0.4-0.4-0.7-0.8-0.7
		c-2.7,0.2-5.8,0.7-9.2,1.6c-3.5,0.9-7.3,2.3-10,3.5c-0.3,0.1-0.5,0.6-0.4,1c2,7,3.9,14.5,5.7,22.7c1.8,8.2,3.1,16,4.1,23.2
		c0.1,0.5,0.5,0.8,0.9,0.7c2.9-0.6,6.1-1.5,9.5-2.7C171.2,109.8,173.9,108.6,176.4,107.3z M164.8,66.6c0.4,0,0.7,0.3,0.8,0.7
		c0.9,4.5,1.7,9.3,2.5,14.3c0.9,6,1.5,11.7,1.9,17.1c0,0.3-0.1,0.6-0.3,0.7c-0.9,0.6-2.1,1.3-3.6,1.9c-1.6,0.6-3.1,0.8-4.2,0.8
		c-0.3,0-0.6-0.2-0.7-0.6c-1.5-4.5-3-9.5-4.3-15c-1.3-5.6-2.3-10.7-3-15.5c0-0.3,0.1-0.6,0.3-0.8c1.3-0.9,3-1.8,5.1-2.6
		C161.4,67,163.3,66.7,164.8,66.6z"/>
</g>
<g>
	<path class="st0" d="M155.6,114.1c0,0.1,0,0.2-0.1,0.2c-1,0.5-2.3,0.9-3.9,1.2c-1.9,0.4-3.6,0.4-5,0.4c-0.1,0-0.2-0.1-0.2-0.2
		c-0.1-5.4-0.2-10.9-0.4-16.5c-0.2-6.7-0.5-13.2-0.8-19.6c0-0.1,0-0.2,0.1-0.2c0.4-0.2,0.9-0.4,1.6-0.5c0.8-0.1,1.4,0,1.8,0
		c0.1,0,0.2,0.1,0.2,0.2c1.4,4.9,2.8,10.3,3.9,16.1C154.2,102,155.1,108.3,155.6,114.1z"/>
</g>
<g>
	<path class="st0" d="M73.6,27.6c-1.9,0.3-4.1,1-6.5,2.1c-0.5,0.2-0.7,0.8-0.4,1.3c0.7,1.1,1.7,2.6,3.3,3.9c1.4,1.2,2.8,2,3.9,2.6
		c0.2,0.1,0.5,0.1,0.8,0c1.9-0.9,4.7-1.9,8.1-2.2c7.2-0.6,12.9,2.4,15.6,4.1c0.6,0.4,1,1.1,1,1.8l0.3,7.7c0,0.3-0.1,0.6-0.4,0.8
		c-3.5,2.4-7.2,5.2-11,8.4c-4.6,3.9-8.5,7.8-11.7,11.4c-0.4,0.4-0.3,1,0.1,1.3c1.9,1.4,4.2,2.9,7,4.3c3.3,1.6,6.4,2.7,8.9,3.3
		c0.1,0,1.4,0.1,2.2-0.9c0.6-0.7,0.7-1.7,0.3-2.6l-2.5-6.6c-0.1-0.3-0.1-0.6,0.1-0.9c0.9-1.1,2.1-2.4,3.9-3.6c1-0.7,1.9-1.2,2.7-1.6
		c0.6-0.3,1.3,0.1,1.3,0.8c0.2,3.5,0.4,7,0.6,10.5c0,0.2,0.1,0.3,0.2,0.5c0.9,1.4,2.2,3,3.9,4.6c2.5,2.4,5.2,3.9,7.3,4.8
		c0.7,0.3,1.4-0.3,1.3-1c-1.6-8.1-3.4-16.5-5.6-25.2c-1.5-6-3.1-11.8-4.8-17.4c-0.2-0.6-0.5-1.1-1-1.6C99,35,87.4,25,73.6,27.6z"/>
</g>
<g>
	<path class="st0" d="M129,92c-0.2,0-0.3,0.1-0.4,0.2c-0.3,0.5-0.5,1-0.7,1.7c-0.3,0.9-0.3,1.7-0.3,2.3c0,0.2,0.2,0.3,0.4,0.4
		c0.3,0,0.7,0.1,1,0.1c0.3,0,0.4,0.3,0.4,0.5c-0.8,2.1-1.5,4.4-2.1,6.8c-0.6,2.4-1.1,4.8-1.5,7c0,0.2-0.4,0.4-0.6,0.2
		c-0.5-0.3-1.1-0.6-1.6-0.9c-0.2-0.1-0.4-0.1-0.6,0.1c-0.2,0.2-0.4,0.6-0.7,0.9c-0.4,0.7-0.5,1.3-0.6,1.8c0,0.2,0.1,0.4,0.3,0.4
		c2.4,0.7,5.1,1.3,8,1.9c2.8,0.5,5.3,0.9,7.7,1.1c0.2,0,0.4-0.1,0.4-0.2c1.1-3.6,2.1-7.3,3-11.1c0.9-3.7,1.8-7.2,2.5-10.8
		c0-0.2-0.1-0.4-0.3-0.4c-2-0.5-4.2-0.9-6.6-1.2C133.9,92.3,131.3,92.1,129,92z M128.3,112.3c-0.2-0.1-0.4-0.3-0.3-0.4
		c0.7-2.7,1.5-5.6,2.5-8.5c0.7-2,1.5-4,2.2-5.8c0.1-0.1,0.2-0.2,0.4-0.2c0.8,0,1.7,0.1,2.7,0.2c1,0.1,1.8,0.3,2.6,0.5
		c0.2,0.1,0.3,0.2,0.3,0.4c-0.2,2.2-0.5,4.6-1,7c-0.5,2.8-1.1,5.3-1.8,7.6c0,0.2-0.2,0.2-0.4,0.2c-1.1,0-2.3-0.1-3.6-0.3
		C130.7,112.8,129.4,112.6,128.3,112.3z"/>
</g>
<g>
	<path class="st0" d="M79,77.4c0.2-0.4,0.7-0.5,1.1-0.4c1.2,0.4,2.7,0.9,4.2,1.7c1.6,0.9,3,1.9,4,2.7c0.4,0.4,0.4,1,0.1,1.4
		c-3.1,3.3-6.3,7.1-9.5,11.3c-2.8,3.7-5.2,7.3-7.4,10.8c-0.5,0.9,0.5,1.9,1.3,1.3c1.7-1.1,3.5-2.2,5.5-3.3c2.7-1.5,5.2-2.8,7.7-3.9
		c0.5-0.2,1,0,1.2,0.4c0.3,0.6,0.7,1.4,0.9,2.4c0.4,1.8,0.1,3.4-0.1,4.3c0,0.2-0.1,0.3-0.3,0.4c-2.6,2.6-5.5,5.2-8.6,7.8
		c-3.8,3.2-7.5,6.1-11.1,8.5c-0.4,0.3-1,0.2-1.3-0.2c-0.3-0.4-0.6-0.8-0.9-1.2c-0.3-0.4-0.3-0.9,0.1-1.3c2.8-2.6,5.6-5.6,8.5-9
		c0.8-1,1.6-1.9,2.4-2.9c0.7-0.8-0.3-2-1.2-1.4c-0.5,0.3-1,0.6-1.5,1c-2.7,1.8-4.8,3.7-6.5,5.4c-0.2,0.2-0.5,0.3-0.9,0.3
		c-0.8-0.2-1.8-0.4-2.9-1.1c-1.4-0.8-2.3-1.7-2.9-2.5c-0.2-0.3-0.3-0.7-0.1-1c2.9-5.5,5.9-11.1,9.2-16.9C73.1,87.1,76,82.1,79,77.4z
		"/>
</g>
</svg>
