<?xml version="1.0" encoding="utf-8"?>
<!-- Generator: Adobe Illustrator 27.3.1, SVG Export Plug-In . SVG Version: 6.00 Build 0)  -->
<svg version="1.1" xmlns="http://www.w3.org/2000/svg" xmlns:xlink="http://www.w3.org/1999/xlink" x="0px" y="0px"
	 viewBox="0 0 500 500" style="enable-background:new 0 0 500 500;" xml:space="preserve">
<style type="text/css">
	.st0{display:none;}
</style>
<g id="BACKGROUND" class="st0">
</g>
<g id="OBJECTS">
	<g>
		<path d="M342.29,334.82c-0.54-0.1-1.09-0.14-1.63-0.05c-0.64-0.09-1.35-0.07-1.82,0.44c-1.12,1.3,0.4,2.79,1.69,3.12
			c1.46,0.51,4.34,0.64,4.3-1.52C344.71,335.55,343.37,335.01,342.29,334.82z"/>
		<path d="M467.86,338.37c-3.27-3.25-8.05-4.54-12.54-4.83c-0.89-0.01-4.34-0.15-4.24,1.16c0.06,0.38,0.42,0.49,0.75,0.51
			c3.34,0.18,6.65,0.88,9.7,2.28c1.58,0.74,3.11,1.63,4.29,2.94c1.83,2.12,2.55,3.86,1.76,6.64c-0.94,2.99-3.88,4.77-6.82,5.44
			c-1.88,0.37-3.8,0.52-5.71,0.48c-1.16-0.07-2.32,0.03-3.48,0.06c-0.86-0.02-1.56,0.79-1.54,1.61c0.03,1.03,0.92,1.58,1.87,1.59
			c0.62,0.13,1.25,0.25,1.88,0.26c4.14,0.18,8.55-0.43,12.07-2.73c3.62-2.41,5.84-6.63,4.73-10.98
			C470.08,341.13,469.04,339.65,467.86,338.37z"/>
		<path d="M406.03,304.93c-1.29-3.81-2.79-7.65-5.06-10.99c0,0,0,0,0,0c-0.25-0.27-0.74-0.17-0.87,0.18c-0.14,0.34,0,0.7,0.09,1.04
			c0.61,1.75,1.41,3.44,2.07,5.17c0.99,2.6,2.04,5.18,3.03,7.78c0.09,0.29,0.19,0.59,0.47,0.74c0.6,0.38,1.44-0.26,1.21-0.94
			C406.64,306.92,406.33,305.92,406.03,304.93z"/>
		<path d="M397.54,295.86c-0.11-0.67-1.13-0.58-1.12,0.1c0.11,0.54,0.36,1.05,0.52,1.58c1.61,4.68,2.81,9.48,4.36,14.18
			c0.42,1.3,2.3,0.74,1.98-0.56C401.75,305.93,400.08,300.7,397.54,295.86z"/>
		<path d="M359.76,269.36c-0.9-3.43-2.48-6.61-4.17-9.71c-0.3-0.54-0.6-1.08-0.91-1.61c-0.14-0.27-0.36-0.52-0.7-0.47
			c-0.73,0.13-0.47,0.97-0.3,1.46c0.14,0.46,0.3,0.92,0.47,1.37c1.2,3.22,2.47,6.43,3.8,9.6c0.18,0.49,0.8,0.7,1.26,0.5
			C359.64,270.32,359.91,269.81,359.76,269.36z"/>
		<path d="M360.56,273.36c-0.69,0-1.27,0.58-1.26,1.27c0,0.69,0.58,1.26,1.27,1.26c0.69,0,1.27-0.58,1.26-1.27
			C361.83,273.93,361.25,273.36,360.56,273.36z"/>
		<path d="M375.23,153.42c4.69,0.92,9.36,1.65,13.87,3.4c0.6,0.31,1.3-0.1,0.93-0.77c-0.33-0.44-0.87-0.65-1.33-0.93
			c-1.53-0.85-3.17-1.5-4.81-2.09c-2.68-0.91-5.45-1.62-8.27-1.86C374.11,150.96,373.76,153.13,375.23,153.42z"/>
		<path d="M387.1,159.79c-1.63-0.65-3.33-1.11-4.99-1.65c-1.75-0.58-3.53-1.1-5.36-1.32c-1.63-0.23-2.01,2.15-0.42,2.45
			c1.09,0.14,2.16,0.35,3.24,0.51c2.22,0.28,4.4,0.78,6.62,1.06c0.42,0.03,0.96,0.2,1.25-0.2
			C387.66,160.31,387.43,159.9,387.1,159.79z"/>
		<path d="M382.09,207.6C382.09,207.6,382.09,207.6,382.09,207.6c-2.43,1.08-5.02,1.7-7.64,2.12c-1.75,0.23-3.49,0.46-5.21,0.88
			c-0.68,0.12-1.15,0.88-0.98,1.55c0.14,0.6,0.68,1.01,1.28,1.01c0.31-0.02,0.62-0.04,0.94-0.02c1.57,0.04,3.11-0.34,4.63-0.69
			c1.91-0.51,3.83-1.05,5.6-1.95c0.81-0.46,1.75-0.89,2.22-1.74C383.3,208.15,382.8,207.35,382.09,207.6z"/>
		<path d="M363.26,211.26c-0.05,1.59,2.37,1.69,2.44,0.09C365.74,209.76,363.33,209.67,363.26,211.26z"/>
		<path d="M299.88,243.95c-0.7,0.19-1.19,0.93-0.92,1.64c0.22,0.62,0.95,0.99,1.57,0.75c1.68-0.64,3.41-1.17,4.95-2.12
			c2.49-1.5,4.76-3.35,6.77-5.43c0.39-0.55,1.28-0.94,1.17-1.7c-0.59-1.67-2.27,0.22-3.07,0.77c-1.45,1.11-2.93,2.16-4.5,3.09
			C303.89,242.01,301.87,242.96,299.88,243.95z"/>
		<path d="M295.72,243.03c0.73,0.23,1.38-0.32,2.07-0.5c4.26-1.35,7.9-4.46,10.48-8.05c0.38-0.27,0.13-0.91-0.33-0.86
			c-0.88,0.32-1.59,1.02-2.37,1.53c-2.23,1.65-4.74,2.84-7.26,4c-0.95,0.47-1.81,1.08-2.79,1.5
			C294.51,241.1,294.65,242.72,295.72,243.03z"/>
		<path d="M323.55,96.3c3.88-0.13,7.01-2.94,9.74-5.43c1.72-1.12,3.43-2.39,4.55-4.15c1.7-2.63,0.68-5.59-2.27-6.62
			c-2.04-0.68-4.25,0.08-6.15,0.88c-3.94,1.97-8.89,6.21-9.59,10.79C319.53,94.21,320.96,96.35,323.55,96.3z"/>
		<path d="M374.77,112.29c-0.18,3.28,2.9,5.57,5.88,6.06c5.53,1.26,10.69-3.24,7.25-8.64c-1.1-1.5-2.69-2.7-4.48-3.23
			c-1.1-0.21-2.23-0.52-3.36-0.35C377.09,106.49,374.78,109.33,374.77,112.29z"/>
		<path d="M100.81,252.74c-2.15-3.7-3.69-7.71-5.04-11.76c-0.27-0.8-0.56-1.59-0.82-2.39c-0.07-0.6-0.95-0.62-1.05-0.03
			c0.21,3.29,1.23,6.48,2.3,9.59c1.29,3.51,2.93,6.9,5.12,9.94c0.76,1.05,2.38,0.01,1.77-1.11
			C102.29,255.59,101.64,254.12,100.81,252.74z"/>
		<path d="M106.76,251.58c-2.23-3.46-3.99-7.17-5.62-10.94c-0.31-0.68-0.58-1.38-0.9-2.06c-0.07-0.14-0.16-0.3-0.32-0.36
			c-0.73-0.24-0.79,0.64-0.7,1.13c0.51,3.34,1.7,6.56,3.08,9.63c0.88,1.96,1.95,3.82,3.21,5.56c0.92,1.28,2.91,0.02,2.16-1.35
			C107.34,252.66,107.06,252.12,106.76,251.58z"/>
		<path d="M152.03,172.06c-1.14,0.21-2.24,0.55-3.32,0.96c-2.72,1.06-5.24,2.57-7.59,4.29c-1.01,0.74-2.03,1.49-2.89,2.39
			c-0.21,0.26-0.5,0.51-0.57,0.85c-0.05,0.35,0.29,0.67,0.63,0.55c0.7-0.28,1.32-0.74,1.97-1.12c1.41-0.86,2.79-1.76,4.25-2.54
			c1.67-0.91,3.41-1.7,5.22-2.3c1-0.31,1.97-0.66,2.94-1.04C153.89,173.62,153.32,171.79,152.03,172.06z"/>
		<path d="M156.77,171.04c-0.01,1.16,1.68,1.23,1.76,0.07C158.54,169.94,156.85,169.88,156.77,171.04z"/>
		<path d="M477.83,344.09c-0.27-3.45-2.21-6.48-4.49-8.97c-3.72-4.07-9.16-5.96-14.49-6.78c-4.33-0.55-8.83-0.86-13.08,0.33
			c-4.91,1.34-9.8,4.47-11.45,9.51c-0.74,0.03-1.48,0.04-2.22,0.07c-3.7,0.17-7.42,0.09-11.12,0.15
			c-0.93-11.48-3.35-22.85-6.96-33.78c-1.88-5.62-4.43-10.97-7.07-16.26c-4.63-8.75-9.78-17.23-15.04-25.61
			c-8.65-13.12-18.89-25.08-29.52-36.62c-1.1-1.22-2.21-2.42-3.34-3.62c4.55,0,9.2-0.38,13.76-1c5.74-0.86,11.36-2.53,16.65-4.93
			c5.32-2.36,10.53-5.32,14.5-9.64c3.25-3.61,5.12-8.2,6.79-12.69c2.05-5.41,2.64-11.34,1.95-17.07
			c-0.62-5.71-2.91-11.16-6.14-15.88c-2.6-3.67-5.99-6.76-9.81-9.13c-8.74-5.27-19.11-6.28-29.04-7.51
			c-2.19-0.25-4.39-0.45-6.59-0.38c-0.47,0.06-1.13,0-1.72,0.07c-0.33-2.54-1.1-4.96-2.76-7.03c-0.46-0.56-1.14-1.14-1.89-1.57
			c0.37-0.11,0.78-0.18,1.22-0.23c1.48-0.18,2.96-0.25,4.45-0.31c3.73-0.13,7.51-0.35,11.1-1.48c2.45-0.65,4.94-1.72,6.52-3.79
			c2.27-2.93,1.67-7.06-1.13-9.41c-2.54-2.15-5.92-2.98-9.17-3.31c-5.72-0.53-11.47,0.1-17.16,0.78
			c-2.74,0.27-11.25,1.36-13.21-0.19c0.94-4.88,15.32-7.97,19.67-9.6c4.19-1.4,8.34-2.97,12.2-5.13c3.07-1.71,6.27-3.97,7.22-7.55
			c0.88-2.83-0.38-5.92-2.57-7.79c-2.06-1.73-4.68-2.58-7.3-3.01c-3.57-0.52-7.21,0.18-10.67,1.04c-4.14,1.1-8.1,2.84-11.79,5.01
			c-4.9,2.92-9.39,6.48-14.17,9.58c-4.56,2.93-9.36,5.52-14.33,7.71c-1.48,0.58-2.98,1.19-4.56,1.41c-1.29,0.07-2.89,0.21-1.78-1.53
			c1.01-1.31,2.29-2.36,3.42-3.55c1.56-1.68,2.98-3.71,3.23-6.04c0.55-3.66-2.13-7.17-5.49-8.37c-3.47-1.16-7.25,0.05-10.32,1.78
			c-7.07,4.11-12.79,10.06-19.21,15.05c-3.13,2.46-6.45,4.67-9.81,6.79c-1.55,1-3.11,1.94-4.71,2.82c-3.28-0.62-6.66-0.55-9.98-0.73
			c-4.46-0.21-8.92-0.53-13.38-0.67c-15.18-0.39-30.4-1.81-45.57-0.63c-5.59,0.48-12.24,0.84-15.73,5.91
			c-3.55,5.15-4.56,11.53-5.32,17.61c-0.71,5.33-1.19,10.85-1.46,16.36c-0.01,0-0.02,0-0.03,0c-2.45-0.08-4.91,0.04-7.36,0.29
			c-20.31,1.91-39.59,7.72-56.11,20.01c-9.96,7.32-18.53,16.88-23.17,28.44c-2.26,5.71-3.51,11.79-4.16,17.89
			c-0.48,4.6-0.26,9.24,0.24,13.83c0.53,6.1,2.01,12.06,4.22,17.76c4.34,12.28,13.05,22.34,22.52,31.07
			c-1.44,1.59-2.12,3.77-2.45,5.86c-1.01,8.3,5.65,15.07,12.13,19.2c4.85,2.92,10.45,4.52,16.1,4.79c6.77,0.36,13.6-1.47,19.27-5.18
			c5.14-3.35,8.55-9.56,7.07-15.53c0.11-0.01,0.22-0.03,0.34-0.05c2.18-0.3,4.29-1.16,6.19-2.27c5.39-3.32,10.26-9.95,9.19-16.51
			c0.56-0.24,1.12-0.67,1.63-0.95c0.52-0.31,1.07-0.62,1.52-1.04c1.96-1.76,2.83-4.44,3.03-7c0.16-2.56-0.7-5.09-2.02-7.26
			c-1.89-3.05-4.55-5.55-7.31-7.8c-1.47-1.16-3.03-2.17-4.59-3.2c-0.01-0.21-0.04-0.42-0.06-0.63c-0.48-3.69-1.89-7.24-4.06-10.27
			c-3.12-4.18-8.52-6.74-13.74-5.7c-0.73,0.15-2.9,0.72-4.12,1.36c-2.23-1.73-4.39-3.56-6.45-5.49c-2.4-2.26-4.85-4.49-6.8-7.16
			c-1.28-1.76-2.52-3.56-3.43-5.54c-0.84-1.81-1.42-3.71-1.92-5.64c-1.85-8.67,1.58-15.25,8.56-20.31
			c4.87-3.55,10.33-6.13,15.92-8.33c5.04-1.99,10.34-3.2,15.69-3.99c1.22-0.22,2.47-0.35,3.7-0.58c-0.03,8.56,0.27,17.11,1.35,25.6
			c1.16,9.25,3.37,18.52,8.38,26.5c5.66,9.08,13.28,16.99,22.12,23.01c6.03,4.09,12.77,7.02,19.67,9.3c-0.11,0.8-0.05,1.7-0.15,2.38
			c-0.09,4.78,0.43,9.6,1.63,14.24c0.13,0.53,0.24,1.13,0.5,1.61c-3.11,3.14-6.32,6.19-9.4,9.36c-7.7,8.02-15.06,16.33-21.89,25.12
			c-6.57,8.74-13.06,17.56-19.24,26.58c-0.3,0.47-0.63,0.93-0.94,1.4c-0.81-0.45-1.72-0.71-2.67-0.52c-2.4,0.45-4.34,2.09-6.1,3.68
			c-2.58,2.35-4.97,4.91-7.4,7.41c-4.83,5.03-9.45,10.25-13.82,15.68c-0.6,0.74-1.24,1.47-1.84,2.21c-0.28-1.83-0.67-3.65-1.1-5.44
			c-2.61-9.92-6.99-20.25-16.56-25.21c-4.62-2.44-9.67-4.27-14.91-4.71c-7.81-0.46-16.55,1.91-22.27,7.42
			c-3.03,2.94-4.5,7.19-4.44,11.37c0.03,1.35,0.11,2.7,0.33,4.04c1.28,7.85,3.79,15.43,6.39,22.93
			c4.43,12.29,9.31,24.41,14.39,36.44c3.96,9.45,8.11,18.88,13.82,27.42c4.11,6.05,8.79,13.16,16.08,15.48
			c2.7,0.78,5.85,0.75,8.43-0.45c0.06-0.02,0.12-0.04,0.18-0.05c3.14-1.24,5.1-4.19,7.08-6.76c1.14-1.63,2.23-3.29,3.32-4.95
			c8.96-12.36,18.23-24.51,26.99-37.03c4.35-6.11,8.89-12.09,13.55-17.96c3.72-4.88,9.53-12.09,10.01-18.28
			c0.15-3.07-0.98-4.83-2.65-6.65c0.01-0.02,0.03-0.05,0.04-0.07c0.52-0.82,1.08-1.61,1.57-2.46c1.46-2.55,2.89-5.13,4.44-7.63
			c2.72-4.35,5.7-8.53,8.47-12.85c4-6.28,7.98-12.58,11.93-18.89c2.57-4.13,5.29-8.16,8.07-12.15c0.51,2.65,1.63,5.89,2.05,7.47
			c2.2,7.19,4.73,14.28,7.77,21.16c3.59,8.24,7.31,16.43,11.88,24.19c2.57,4.28,5.61,8.25,8.77,12.11c1.35,1.61,2.59,3.35,4.23,4.68
			c-0.41,0.61-0.73,1.28-0.88,2.02c-0.72,4.7,4.2,9.55,7.06,12.84c3.84,4.57,7.81,9.03,11.78,13.48c0.41,0.47,0.81,0.94,1.2,1.43
			c-0.82,0.65-1.59,1.36-2.31,2.12c-0.26,0.26-0.54,0.58-0.78,0.93c-0.51-0.48-1.04-0.94-1.58-1.38
			c-7.68-6.7-18.14-10.92-28.39-8.99c-8.16,1.29-15.16,6.17-20.99,11.8c-4.53,4.33-8.72,9.04-12.22,14.25
			c-4.5,6.14-5.84,11.67,2.72,14.47c3.67,1.18,7.54,1.54,11.34,2.05c10.01,1.25,20.11,1.53,30.14,2.6
			c13.54,1.44,27.17,3.56,40.82,3.82c3.84,0.24,7.5-0.26,9.47-3.99c0.27-0.49,0.52-0.99,0.77-1.5c0.29-0.38,0.56-0.77,0.79-1.18
			c0.87-1.49,1.59-3.07,2.32-4.63c2.01-4.31,4.16-8.55,6.17-12.86c3.11-6.56,5.66-13.35,8.77-19.9c2.08-4.34,4.32-8.66,5.47-13.36
			c1.34-5.2,1-10.08-2.22-14.53c-2.58-3.85-5.88-7.14-9.04-10.52c-3.16-3.34-6.31-6.67-9.59-9.88c-2.54-2.5-4.98-5.1-7.75-7.35
			c-1.86-1.51-3.76-3.08-6.04-3.9c-1.22-0.49-2.61-0.49-3.8,0.05c-0.09-0.1-0.18-0.2-0.27-0.29c-3.97-4.07-7.75-8.31-11.53-12.55
			c-9.67-10.29-17.64-21.9-25.36-33.69c0.01,0.01,0.01,0.02,0.02,0.03c-2.94-4.43-5.7-9.06-8.33-13.7c-0.7-1.26-1.39-2.52-2.09-3.78
			c2.19-3.19,4.31-6.43,6.75-9.43c1.85-2.29,3.7-4.57,5.67-6.77c1.92-2.2,3.72-4.6,6.21-6.19c0.3-0.19,0.61-0.33,0.94-0.45
			c15.07-1.35,29.18-8.29,41.06-17.44c4.81-3.63,9.02-7.86,12.77-12.49c0.32,0.48,0.64,0.96,0.96,1.44
			c6.76,11.18,12.48,22.98,17.35,35.09c4.29,10.72,7.53,21.81,10.81,32.86c1.68,5.62,3.23,11.29,4.3,17.07
			c0.39,2.08,0.76,4.16,1.23,6.22c0.08,0.4,0.16,0.79,0.24,1.19c-1.28,0.07-2.69,0.43-3.22,0.66c-0.86,0.34-1.68,0.81-2.41,1.38
			c-1.08,0.83-1.92,1.94-2.61,3.1c-0.18,0.26-0.32,0.57-0.4,0.88c-3.17-0.55-6.37-1-9.56-1.39c-4.02-0.5-10.1-1.31-13.78,0.49
			c-3.42,1.6-4.49,5.75-1.99,8.65c2.65,2.74,7.43,2.98,11.03,3.48c4.38,0.45,8.74,1.07,13.1,1.64c-1.41,2.84-0.27,6.63,1.06,9.37
			c3.19,6.54,9.27,12.79,16.89,13.3c2.52,0.18,4.67-0.48,6.5-1.7c0.4,0.75,1.08,1.44,1.57,2c2.2,2.22,5.26,3.65,8.39,3.84
			c1.36,0.08,2.71-0.26,3.99-0.67c1.09-0.31,2.05-0.87,2.9-1.58c0.04,0.1,0.1,0.2,0.16,0.31c0.42,0.6,1.14,0.94,1.78,1.25
			c1.48,0.7,3.11,1.07,4.74,1.05c1.69,0.02,3.4-0.16,5-0.7c4.98-1.77,8.35-6.44,10.36-11.14c0.82-2.12,1.25-4.31,1.46-6.54
			c2.8,0,5.59-0.21,8.38-0.32c1.61-0.02,3.27-0.15,4.84,0.27c1.02,0.3,1.74,1.15,2.45,1.89c3.39,4.29,7.63,7.38,13.17,8.06
			c5.59,0.63,11.24-0.87,16.29-3.21c2.58-1.3,5.13-2.81,7.1-4.96C476.54,352.43,478.34,348.26,477.83,344.09z M153.9,232.07
			c2.9-0.29,5.86,0.63,8.17,2.38c2.65,2.02,4.23,5.11,5.14,8.25c0.13,0.5,0.23,1,0.3,1.51c-4.07-2.68-8.06-5.49-12.04-8.31
			c-1.54-1.03-3.06-2.1-4.54-3.21C151.91,232.46,152.89,232.19,153.9,232.07z M173.11,172.49c-6.51,0.27-13.05,1.49-19.15,3.85
			c-3.27,1.32-6.92,2.81-10.11,4.53c-5.23,2.95-10.6,6.26-13.87,11.45c-1.55,2.52-2.44,5.23-2.78,7.99
			c-0.63-1.78-1.15-3.61-1.51-5.47c-0.18-0.96-0.34-1.93-0.52-2.89c-0.04-0.71-0.4-1.49-1.21-1.03c-1.11,1.17-0.98,5.32-0.92,7
			c0.22,5.54,1.6,11.07,4.24,15.96c2.52,4.79,6.25,8.77,10.14,12.48c2.64,2.48,5.25,5,8.14,7.19c2.22,1.6,4.48,3.16,6.8,4.61
			c0.88,0.53,1.77,1.04,2.66,1.57c0.6,0.43,1.21,0.86,1.81,1.29c3.82,2.75,7.72,5.37,11.71,7.85c1.9,1.24,3.84,2.43,5.62,3.84
			c1.95,1.62,3.73,3.45,5.27,5.47c2.11,2.81,3.16,6.09,1.56,9.41c-0.67,1.39-1.82,2.48-2.99,3.44c0,0,0,0-0.01,0
			c-1.79-3.5-5.36-6.09-8.68-7.99c-2.93-1.65-6.01-3-8.97-4.6c-0.61-0.25-2.31-1.55-2.77-0.68c-0.58,1.2,5.62,4.68,6.71,5.4
			c3.95,2.62,9.02,4.9,11.14,9.47c1.94,5.29-1.9,10.74-5.98,13.83c-1.58,1.12-3.35,1.97-5.23,2.43c-0.72,0.2-1.64,0.28-2.34,0.56
			c-1.1-1.8-2.8-3.17-4.36-4.57c-3.69-3.23-7.42-6.26-11.31-9.27c-0.39-0.26-0.78-0.63-1.28-0.65c-0.25,0.01-0.46,0.19-0.52,0.43
			c-0.11,0.53,0.36,0.94,0.65,1.33c3.83,4.56,8.51,8.29,12.77,12.43c2.69,2.58,3.31,6.82,1.79,10.18c-1.41,3.1-4.04,5.46-7,7.05
			c-3.12,1.75-6.58,2.84-10.14,3.22c-8.15,0.94-16.63-1.19-23.06-6.44c-3.34-2.68-6.49-6.03-7.56-10.29
			c-0.33-1.36-0.47-2.78-0.21-4.17c0.2-0.98,0.36-2,0.88-2.87c0.13-0.2,0.27-0.41,0.42-0.6c6.76,5.98,13.91,11.54,21.77,16
			c1.89,1,3.28-1.64,1.59-2.7c-0.82-0.5-1.62-1.02-2.42-1.55c-10.88-7.27-21.48-15.22-30.04-25.2c-3.83-4.41-7.22-9.23-9.81-14.47
			c-2.42-5.09-4.32-10.45-5.54-15.96c-1.11-5.73-1.52-11.6-1.26-17.43c0.3-4.4,1.12-8.76,2.25-13.02
			c4.07-15.59,15.08-28.1,28.37-36.78c12.53-8.34,27.02-13.28,41.78-15.88c3.42-0.57,6.83-1.19,10.27-1.61
			c-0.03,4.2,1.31,12.15,3.23,15.81C173.14,172.49,173.12,172.49,173.11,172.49z M91.56,364.48c-1.45-5.91-4.25-13.77-1.02-19.41
			c0.79,0.08,1.26-0.63,1.86-1.01c1.05-0.61,2.17-1.13,3.36-1.4c3.4-0.62,6.07,1.16,8.21,3.6c2.21,2.55,3.98,5.44,5.68,8.34
			c1.86,3.34,3.57,6.75,5.19,10.2c-0.21,0.07-0.42,0.13-0.64,0.2c-2.4,0.7-4.83,1.44-7.21,2.22c-3.14,0.98-6.21,2.19-9.32,3.26
			c-0.49,0.21-2.51,0.82-3.77,1.52C93.07,369.5,92.29,367,91.56,364.48z M94.34,373.31c0.74-0.16,1.46-0.38,2.19-0.59
			c3.29-0.97,6.51-2.14,9.76-3.23c3.11-1.02,6.26-1.91,9.42-2.84c4.07,8.9,7.54,18.07,11.09,27.2c-0.67,0.17-1.29,0.34-1.75,0.42
			c-2.06,0.52-4.12,1.04-6.16,1.61c-3.77,1.08-7.49,2.26-11.27,3.35c-0.45,0.2-1.93,0.54-3.04,1.01
			C100.98,391.34,97.41,382.42,94.34,373.31z M105.7,403.05c-0.14-0.36-0.29-0.72-0.43-1.08c0.09-0.02,0.19-0.04,0.28-0.05
			c4.21-0.85,8.35-1.99,12.49-3.11c3.24-0.82,6.51-1.57,9.75-2.38c1.5,3.83,3.02,7.65,4.62,11.44c1.81,4.62,3.63,9.25,5.34,13.92
			c-5.9,1.65-11.7,3.32-17.57,5.24c-0.57,0.24-2.31,0.71-3.44,1.32C112.63,420.12,109.26,411.51,105.7,403.05z M124.62,441.85
			c-2.66-3.85-5-7.88-7.13-12.03c4.5-0.87,8.93-2.21,13.4-3.25c2.62-0.7,5.29-1.23,7.9-1.95c1.57,4.4,3.04,8.84,4.33,13.34
			c1.07,4.02,2.56,8.07,2.39,12.28c-0.07,3-2.27,4-4.94,4.18C133.49,454.72,128.33,447,124.62,441.85z M363.3,160.82
			c0.29-2.09,0.47-4.19,0.6-6.3c0.15-2.28,0.28-4.57,0.15-6.86c-0.03-0.25-0.03-0.52-0.05-0.78c2.93,0.3,5.85,0.77,8.75,1.25
			c4.47,0.73,8.98,1.33,13.27,2.82c4.08,1.34,8.17,2.9,11.61,5.52c3,2.27,5.66,5.02,7.65,8.22c2.02,3.36,3.49,7.08,4.17,10.95
			c0.76,4.64,0.46,9.41-0.57,13.99c-1.61,5.56-3.65,11.76-7.79,15.96c-6.98,6.77-18.78,10.75-28.26,12.21
			c-3.88,0.56-7.8,0.9-11.72,1.06c-1.17,0.03-2.34,0.03-3.5-0.01c-0.69,0.01-1.42-0.16-2.09,0c-1.67-1.69-3.36-3.36-5.08-4.99
			c0.28-0.39,0.43-0.97,0.56-1.41c0.23-0.78,0.44-1.52,0.68-2.4c0.56-2.09,1.08-4.19,1.43-6.33c0.05-0.46,0.18-0.93,0.22-1.4
			c4.54,1.1,9.37,2.17,14.06,2.65c7.15,0.68,14.87-1.04,20.17-6.1c1.86-1.76,3.24-3.94,4.4-6.21c0.85-1.66,1.49-3.43,1.86-5.26
			c2.43-10.26-4.89-18.43-14.23-21.44c-4.56-1.51-9.32-2.31-14.05-3.1c-0.83-0.13-1.65-0.25-2.48-0.36
			C363.18,161.94,363.2,161.27,363.3,160.82z M358.25,165.4c0.8,0.39,1.93,0.38,2.78,0.47c2.24,0.24,4.48,0.58,6.71,0.92
			c8.09,1.26,18.11,2.95,21.82,11.28c1.89,4.46,0.86,9.64-1.42,13.76c-1.86,3.64-4.86,6.29-8.61,7.87
			c-9.39,3.83-19.59,1.09-29.26-0.19c1.94-5.17,3.38-10.52,4.52-15.92C356.18,177.57,357.4,171.51,358.25,165.4z M258.27,288.69
			c0.22,0.54,0.44,1.07,0.67,1.61c3.73,8.82,8.77,16.99,14.02,24.97c3.7,5.59,7.7,11,11.96,16.18c3.03,3.61,6.24,7.07,9.35,10.61
			c2.85,3.1,5.59,6.34,8.62,9.26c-0.82,0.81-1.6,1.66-2.39,2.49c-2.34,2.55-4.72,5.06-7.15,7.53c-0.52,0.5-1.03,1-1.54,1.5
			c0,0,0,0-0.01,0.01c-2.68,2.45-5.31,4.95-8,7.39c-2.94,2.64-5.87,5.28-8.71,8.02c-0.07,0.08-0.15,0.15-0.22,0.23
			c-0.01-0.01-0.02-0.02-0.03-0.03c-0.49-0.64-1.01-1.26-1.54-1.87c-3.32-3.95-6.57-7.97-9.38-12.3
			c-3.31-5.19-6.02-10.71-8.66-16.26c-2.16-4.59-4.22-9.22-6.22-13.87c-3.33-7.84-5.95-15.96-9.11-23.87c1-0.71,1.95-1.48,2.9-2.25
			c4.37-3.69,8.02-8.17,11.32-12.82C255.65,293.1,257.06,290.95,258.27,288.69z M350.7,341.67c-3.06-0.47-6.14-0.78-9.18-1.36
			c-2.74-0.68-8.28-1.1-7.53-5.08c0.98-2.98,4.82-2.73,7.38-2.77c2.81,0.05,5.6,0.44,8.38,0.82c6.52,0.81,12.99,1.96,19.45,3.13
			c1.29,0.18,2.59,0.39,3.9,0.44c0.07,0,0.13,0,0.2,0c0.03,1.71-0.13,3.41-0.48,5.08c-0.19,0.86-0.41,1.72-0.68,2.57
			c-0.34-0.07-0.71-0.07-1.11-0.15c-1.43-0.21-2.85-0.48-4.29-0.68C361.4,342.96,356.04,342.41,350.7,341.67z M416.12,360.3
			c-1.54,2.98-3.71,5.8-6.76,7.32c-2.74,1.18-6.13,1.6-8.79,0.03c-0.21-0.14-0.43-0.24-0.65-0.29c0.48-0.68,0.89-1.41,1.23-2.15
			c0.9-1.98,1.73-4,2.42-6.06c1.26-4.26,1.42-8.69,1.16-13.15c-0.03-0.33-0.07-0.66-0.13-0.99c-0.05-0.23-0.08-0.55-0.27-0.72
			c-0.37-0.36-0.87-0.02-0.94,0.42c-0.53,2.64-0.44,5.38-0.8,8.05c-0.32,3.04-1.12,6.01-2.43,8.78c-0.75,1.68-1.39,3.45-2.62,4.86
			c-1.51,1.72-2.87,2.12-5.09,2.3c-2.49,0.13-4.91-1.05-6.77-2.63c-0.78-0.68-1.37-1.53-2.07-2.29c4.08-4.54,6.06-12.11,6.84-17.42
			c0.16-0.91,1.1-8.73-1.15-6.71c-1.12,5.6-1.97,11.42-4.6,16.59c-1.56,2.99-3.33,6.35-6.69,7.55c-6.35,1.6-12.06-3.52-15.47-8.35
			c-1.56-2.61-4.22-7.06-2.71-10.08c0.26,0.03,0.51,0.06,0.77,0.09c2.2,0.31,4.39,0.67,6.6,0.93c0,0.34,0.02,0.67,0.01,0.93
			c0.03,1.43,0,2.87-0.04,4.3c0.07,0.73-0.34,2.11,0.39,2.52c0.06,0.16,0.16,0.31,0.31,0.47c0.46,0.46,1.28,0.56,1.8,0.13
			c1.43-1.25,2.49-2.87,3.36-4.54c1.82-3.46,2.93-7.37,2.84-11.29c-0.06-1.35-0.45-4.99-2.08-5.25c-0.95,0.1-0.6,1.24-0.56,1.92
			c-1.68-0.52-3.43-0.81-5.12-1.25c-2.41-0.65-4.84-1.2-7.29-1.68c0.12-0.2,0.24-0.41,0.37-0.59c0.52-0.76,1.17-1.43,1.95-1.93
			c0.58-0.38,1.21-0.7,1.87-0.93c0.92-0.38,3.01-0.61,3.74-1.45c0.21-0.12,0.39-0.29,0.52-0.51c0.19-0.33,0.22-0.68,0.15-1.05
			c-0.31-1.64-0.54-3.3-0.86-4.94c-2.68-14.37-7.38-28.16-11.78-42.09c-5.53-16.45-12.83-32.36-21.84-47.2
			c-0.46-0.71-0.94-1.43-1.42-2.14c-0.45-0.66-0.91-1.32-1.37-1.97c-0.08-0.12-0.17-0.23-0.25-0.35c-0.21-0.3-0.43-0.61-0.65-0.91
			c-1.85-2.57-3.78-5.11-5.69-7.58c-5.36-6.74-11.38-12.93-17.8-18.66c-3.17-2.92-6.52-5.63-9.9-8.3c-0.78-0.63-1.57-1.25-2.34-1.88
			c-0.26-0.27-0.69-0.52-1.02-0.21c-0.27,0.26-0.2,0.59-0.05,0.9c-0.01,0.03-0.01,0.07-0.01,0.1c0,0.21,0.16,0.37,0.28,0.52
			c0.42,0.52,0.86,1.01,1.29,1.52c5.51,6.84,10.75,13.89,16.22,20.76c3.62,4.73,6.81,9.77,10,14.79c0.81,1.32,1.55,2.67,2.26,4.04
			c0.26,0.43,0.43,0.93,0.67,1.37c-0.49,0.53-0.99,1.05-1.5,1.56c-7.55,7.35-16.49,13.4-26.13,17.66c-4.61,1.9-9.36,3.3-14.23,4.41
			c-0.93,0.34-2.7,0.4-4.26,0.63c1.23-1.65,2.4-3.34,3.49-5.09c0.69-1.12,1.39-2.19,2.08-3.35c0.1-0.18,0.2-0.37,0.17-0.58
			c-0.04-0.22-0.19-0.4-0.42-0.46c-0.29-0.08-0.54,0.11-0.75,0.28c-0.33,0.27-0.62,0.56-0.91,0.87c-1.79,1.98-3.38,4.12-5.09,6.17
			c-6.77,8.26-14.41,15.92-20.77,24.54c-8.81,11.92-17.67,23.81-26.06,36.03c-5.5,8.27-10.68,16.75-16.16,25.04
			c-3.9,5.82-7.87,11.57-11.37,17.65c-0.79,1.26-1.49,2.56-2.19,3.86c-2.27-2.33-4.55-4.67-6.9-6.92c-2.53-2.3-4.97-4.7-7.46-7.04
			c-1.41-1.42-2.8-2.82-4.23-4.34c-0.99-1.02-1.98-2.04-3.01-3.02c0.22-0.35,0.43-0.69,0.64-0.99c0.51-0.76,1.02-1.53,1.53-2.29
			c4.06-5.96,8.43-11.7,12.58-17.61c5.99-8.41,12.31-16.59,19.25-24.26c6.62-7.51,13.86-14.43,20.88-21.57
			c5.29-5.18,10.55-10.35,15.96-15.4c4.76-4.4,10.02-8.81,14.91-13.14c0.92-0.81,1.85-1.61,2.73-2.45c0.42-0.4,0.85-0.79,1.24-1.22
			c0.22-0.25,0.51-0.48,0.6-0.82c0.07-0.32-0.23-0.59-0.54-0.56c-0.63,0.16-1.14,0.61-1.7,0.93c-2.02,1.29-3.93,2.75-5.83,4.2
			c-5.42,4.12-10.65,8.46-15.72,12.99c-0.42-0.49-1.07-0.55-1.67-0.6c-0.54-0.07-1.07-0.16-1.61-0.27c-3.8-0.77-7.65-1.33-11.4-2.37
			c-5.5-1.51-10.56-3.35-15.75-5.89c-13.3-6.6-25.8-18.71-31.73-32.42c-2.37-5.54-3.54-11.49-4.42-17.43
			c-1.18-8.77-1.51-17.62-1.56-26.46c0.03-12.07,0.09-24.17,1.71-36.15c0.42-3.55,0.99-7.19,2.08-10.62
			c2.87-8.53,6.57-9.53,14.96-10.21c11.82-1.39,23.72-0.54,35.58-0.34c6.16,0.08,12.32,0.23,18.48,0.44
			c4.52,0.17,9.05,0.26,13.57,0.22c-1.31,0.66-2.66,1.28-4.07,1.87c-3.05,1.28-6.4,1.95-9.73,2.46c-2.75-0.17-5.5-0.3-8.25-0.39
			c-6.78-0.2-13.56-0.23-20.33-0.38c-7.06-0.13-14.14-0.25-21.19,0.27c-5.29,0.49-11.12,1.24-15.32,4.78
			c-1.54,1.37-1.74,3.69,0.09,4.87c1.78,1.06,3.84,1.54,5.83,2.05c3.12,0.79,6.3,1.36,9.49,1.79c18.83,2.6,37.77,4.29,56.65,6.53
			c20.39,2.33,40.76,5.04,61.26,6.1c8.42,0.29,23.61,1.5,30.32-3.9c1.3-1.06,2.44-2.7,2.61-4.4c0.28-0.45,0.53-0.92,0.78-1.4
			c0.12-0.24,0.25-0.45,0.39-0.64c0.66,0.3,1.37,0.81,1.88,1.82c2.21,4.05,1.58,8.83,1.3,13.25c-0.26,3.92-0.65,7.82-1.15,11.72
			c-2.12,12.58-4.37,25.77-9.4,37.63c-0.81,1.79-1.65,3.59-2.52,5.37c-9.41-8.14-19.55-15.43-30.4-21.55
			c-0.82-0.47-1.64-0.94-2.47-1.38c-0.52-0.22-1.08-0.75-1.67-0.59c-0.38,0.14-0.31,0.66-0.04,0.87c2.88,2.31,6.09,4.29,9.1,6.45
			c8.52,5.69,16.55,12.04,24.14,18.89c0.23,0.21,0.46,0.41,0.69,0.62c0.13,0.12,0.26,0.24,0.4,0.36c0.17,0.16,0.34,0.31,0.51,0.47
			c0.19,0.18,0.39,0.36,0.58,0.54c0.23,0.22,0.47,0.43,0.7,0.65c6.66,6.2,12.99,12.77,19.04,19.6
			c9.37,10.26,18.17,21.14,25.81,32.79c3.05,4.79,5.85,9.74,8.74,14.62c2.06,3.46,4.1,6.93,5.93,10.52c1.44,2.83,2.8,5.7,4.1,8.6
			c2.65,6.07,4.54,12.45,6.07,18.89c1.15,4.88,2.21,9.79,2.9,14.75c0.56,4.31,0.9,8.64,1.16,12.98
			C418.34,350.19,418.65,355.63,416.12,360.3z M228.78,262.54c0.12,0.06,0.23,0.12,0.33,0.18c0.56,0.29,1.14,0.58,1.84,0.89
			c1.55,0.68,3.14,1.26,4.73,1.82c0.99,0.32,1.96,0.7,2.96,1.01c-2.71,2.57-5.37,5.2-7.99,7.86c-0.1-0.28-0.18-0.57-0.22-0.85
			c-0.77-3-1.11-6.09-1.45-9.16C228.9,263.7,228.84,263.12,228.78,262.54z M468.95,355.63c-4.92,3.33-11.13,5.16-17.07,5.04
			c-3.59-0.18-7-1.8-9.75-4.06c-1.87-1.52-3.16-3.66-5.16-5.03c-2.92-1.89-8.02-0.87-11.4-0.76c-1.3,0.1-2.61,0.18-3.92,0.25
			c0.07-3.39-0.26-6.83-0.5-10.2c0.18,0,0.35,0.01,0.52,0.01c2.47,0,4.94-0.08,7.41-0.23c1.25-0.09,2.52-0.13,3.77-0.3
			c0.77-0.01,1.54-0.04,2.3-0.16c0.98-0.23,1.35-1.27,1.78-2.07c0.41-0.79,0.89-1.54,1.46-2.22c1.85-2.09,4.25-3.68,6.87-4.61
			c4.3-1.61,9.02-1.29,13.47-0.62c5.54,0.98,10.97,3.38,14.11,8.25C477.09,344.6,474.42,351.92,468.95,355.63z"/>
		<path d="M196.68,139.38c7.31,1.21,14.59,2.69,21.95,3.8c1.19,0.12,1.38-1.63,0.21-1.79c-3-0.5-6-1.09-9.01-1.62
			c-7.33-1.51-15.03-2.19-22.25-4.31c-1.02-0.35-2.07-0.7-2.92-1.38c-0.34-0.22-0.6-0.85-1.07-0.68c-1.09,0.76,0.6,2.25,1.36,2.64
			c1.06,0.62,2.24,1.03,3.42,1.38C191.1,138.22,193.88,138.87,196.68,139.38z"/>
		<path d="M330.75,154.19c4.06-0.27,8.16-0.7,11.99-2.13c2.48-0.94,5-2.11,6.65-4.27c0.25-0.37,0.63-0.76,0.65-1.23
			c-0.3-0.72-1.01,0.32-1.51,0.7c-1.13,1.07-2.5,1.86-3.96,2.46c-3.96,1.65-8.25,2.25-12.5,2.54c-8.26,0.52-16.49,0-24.75-0.71
			c-8.02-0.71-16-1.79-24.02-2.54c-6.01-0.69-11.96-1.79-17.98-2.46c-3.61-0.44-7.25-0.54-10.88-0.8c-1.45-0.1-1.55,1.92-0.25,2.09
			c9.44,0.71,18.77,2.41,28.15,3.55c12.09,1.22,24.17,2.64,36.33,2.93C322.7,154.41,326.73,154.42,330.75,154.19z"/>
		<path d="M206.68,311.84c0.21-0.32,0.43-0.64,0.65-0.96c0.22-0.23,0.32-0.55,0.14-0.83c-0.71-0.89-1.58,0.58-2.07,1.05
			c-1.49,1.82-2.86,3.73-4.22,5.65c-1.11,1.57-2.06,3.18-3.07,4.83c-0.43,0.7-0.94,1.5-1.44,2.3c-0.26,0.42-0.04,1.01,0.38,1.23
			c0.5,0.28,1.09-0.02,1.32-0.51c0.3-0.48,0.67-1.06,1.05-1.63c1.96-2.9,3.97-5.78,5.78-8.78
			C205.69,313.4,206.18,312.61,206.68,311.84z"/>
		<path d="M209.15,313.17c-1.22,1.45-2.19,3.12-3.29,4.67c-1.8,2.59-3.42,5.29-5.04,7.99c-0.29,0.49-0.05,1.16,0.43,1.41
			c0.5,0.28,1.15,0.06,1.41-0.43c1.8-2.92,3.61-5.84,5.23-8.87c0.67-1.25,1.4-2.47,1.97-3.77c0.1-0.22,0.16-0.46,0.12-0.69
			C209.92,313.1,209.44,312.93,209.15,313.17z"/>
		<path d="M253.28,333.77c0.12,1.55,1,2.99,1.51,4.45c1.6,3.97,3.33,7.87,5.77,11.4c0.73,1.19,2.55,0.03,1.82-1.14
			c-0.19-0.33-0.38-0.67-0.56-1c-2.04-4.28-4.3-8.45-6.5-12.65c-0.3-0.48-0.47-1.04-0.78-1.5
			C254.1,332.92,253.35,333.18,253.28,333.77z"/>
		<path d="M263.13,355.08c0.38,0.36,0.86,0.51,1.37,0.51c1.02,0,1.84-0.98,1.79-1.97c-0.02-0.49-0.24-0.95-0.59-1.29
			c-0.38-0.36-0.86-0.51-1.37-0.51c-1.02,0-1.84,0.98-1.79,1.97C262.56,354.28,262.77,354.75,263.13,355.08z"/>
		<path d="M262.85,177.46c-0.44-0.27-0.95-0.04-1.22,0.36c-0.44,0.49-0.87,0.99-1.36,1.43c-0.82,0.67-1.83,1.12-2.85,1.38
			c-0.31,0.07-0.65,0.02-0.96,0.13c-0.33,0.14-0.48,0.51-0.36,0.85c0.14,0.39,0.62,0.53,0.99,0.58c1.77,0.1,3.52-0.85,4.79-2.03
			c0.5-0.46,0.9-0.99,1.25-1.57C263.39,178.23,263.22,177.68,262.85,177.46z"/>
		<path d="M193.61,181.99c2.26,0.14,4.22-1.29,5.42-3.1c2.14-3.07,2.38-8.56,2.14-12.23c-0.07-0.56-0.14-1.13-0.23-1.72
			c-0.01-0.2-0.02-0.4-0.04-0.61c-0.22-3.1-0.84-7.15-2.71-9.69c-1.07-1.33-2.47-2.56-4.2-2.85c-1.61-0.28-3.33,0.06-4.7,0.96
			c-2.93,1.83-4.06,5.37-3.22,8.65c0.06,0.18,0.12,0.36,0.18,0.55c0.06,0.25,0.12,0.49,0.19,0.74c0.44,2.26,2.62,3.59,4.69,4.21
			c-2.91,1.01-5.41,2.56-4.62,6.06c0.35,1.99,0.85,4,1.91,5.74C189.55,180.47,191.4,182.01,193.61,181.99z"/>
		<path d="M247.66,161.68c1.26,0.32,2.59,0.33,3.89,0.28c-1.27,0.9-2.84,1.84-3.41,3.36c-0.17,1.21,0.27,2.41,0.51,3.59
			c0.99,4.05,2.79,9.48,7.65,9.89c3.7,0.17,5.79-3.03,6.41-6.31c1.14-5.54-0.52-13.91-3.62-18.64c-0.71-1.11-1.69-2.3-2.82-3.07
			c-1.03-0.72-2.29-1.15-3.52-1.18c-1.83-0.27-3.79,0.6-4.82,2.19c-1.28,1.97-1.72,5.05-1.33,7.52
			C246.65,160.22,246.7,161.39,247.66,161.68z"/>
		<path d="M196.59,184.8c0.93-0.18,0.71-1.54-0.22-1.42c-1.09,0.17-2.2,0.29-3.31,0.22c-1-0.06-1.99-0.19-2.95-0.49
			c-0.43-0.14-0.82-0.36-1.23-0.55c-0.18-0.07-0.39-0.13-0.57-0.02c-0.17,0.11-0.24,0.31-0.19,0.5c1.01,1.7,3.75,2.12,5.58,2.2
			C194.69,185.25,195.63,184.95,196.59,184.8z"/>
		<path d="M235.4,157.36c1.54,0.35,2.86-1.19,3.93-2.09c2.35-2.24,4.58-4.65,6.39-7.34c0.48-0.65,0.76-1.62-0.13-2.05
			c-0.59-0.27-1.24,0-1.78,0.24c-1.99,1.02-3.58,2.66-5.15,4.23c-1.2,1.21-2.33,2.51-3.34,3.89
			C234.48,155.17,233.78,156.71,235.4,157.36z"/>
		<path d="M194.71,145.42c-0.45,0.12-0.81,0.52-0.89,0.98c-0.25,1.44,2,2.98,2.9,3.97c2.34,2.17,5.63,5.81,8.83,6.61
			c0.45,0.04,0.92-0.16,1.17-0.55c0.98-1.64-2.37-4.6-3.43-5.74c-1.37-1.32-2.83-2.55-4.38-3.65
			C197.65,146.22,196.29,145.11,194.71,145.42z"/>
		<path d="M252.07,184.92c-0.7-0.6-1.5-1.04-2.34-1.39c-1.43-0.6-2.97-0.91-4.5-1.13c-1.11-0.16-2.26-0.25-3.4-0.3
			c-1.58-0.07-3.16-0.04-4.74,0.04c-1.51,0.08-3.01,0.18-4.51,0.35c-0.63,0.07-1.38,0.16-2.12,0.26c-1.64,0.23-3.27,0.5-4.89,0.83
			c-0.74,0.15-1.49,0.31-2.23,0.48c-0.38,0.09-0.76,0.19-1.14,0.29c-0.99,0.23-1.97,0.48-2.95,0.74c-0.02,0-0.04,0.01-0.06,0.01
			c-0.18,0-0.34,0.05-0.48,0.13c-0.28,0.08-0.57,0.15-0.85,0.23c-3.14,0.87-6.24,1.94-9.23,3.23c-1.41,0.61-2.81,1.27-4.17,1.98
			c-1.36,0.71-2.7,1.45-4,2.27c-1.27,0.8-2.49,1.68-3.64,2.65c-0.57,0.48-1.11,0.99-1.62,1.52c-0.53,0.56-1.03,1.15-1.45,1.8
			c-0.44,0.69-0.83,1.43-1.03,2.22c-0.11,0.45-0.18,0.9-0.18,1.36c0,0.49,0.08,1,0.26,1.46c0.16,0.41,0.36,0.81,0.62,1.16
			c0.26,0.35,0.55,0.66,0.87,0.94c0.59,0.52,1.27,0.93,1.98,1.27c0.78,0.37,1.59,0.64,2.42,0.87c0.78,0.22,1.58,0.38,2.39,0.5
			c1.66,0.25,3.33,0.39,5.01,0.42c0.36,0.01,0.72,0.01,1.09,0.01c1.27,0,2.54-0.05,3.8-0.14c1.71-0.12,3.41-0.34,5.1-0.59
			c3.25-0.48,6.46-1.17,9.63-2.03c1.57-0.42,3.11-0.92,4.65-1.43c1.44-0.48,2.88-0.99,4.3-1.54c2.89-1.11,5.74-2.36,8.48-3.81
			c1.35-0.72,2.66-1.5,3.92-2.37c1.31-0.9,2.58-1.87,3.72-2.98l0.01-0.01c0.02-0.02,0.05-0.05,0.07-0.07
			c0.73-0.73,1.42-1.56,1.97-2.5c0.4-0.69,0.71-1.42,0.85-2.21c0.14-0.81,0.14-1.67-0.16-2.45
			C253.23,186.21,252.74,185.49,252.07,184.92z M198.89,206.02c-0.52-0.15-1.02-0.32-1.52-0.53c-0.34-0.15-0.66-0.31-0.98-0.49
			c-0.2-0.12-0.4-0.26-0.59-0.4c-0.14-0.11-0.27-0.23-0.4-0.35c-0.11-0.12-0.22-0.25-0.33-0.38c-0.07-0.1-0.14-0.2-0.2-0.31
			c-0.05-0.1-0.1-0.2-0.15-0.31c-0.04-0.11-0.07-0.22-0.11-0.33c-0.02-0.11-0.04-0.21-0.06-0.32c-0.01-0.11-0.01-0.22-0.02-0.34
			c0.01-0.12,0.01-0.24,0.03-0.35c0.03-0.16,0.06-0.32,0.1-0.48c0.06-0.18,0.12-0.35,0.19-0.52c0.11-0.25,0.23-0.48,0.36-0.72
			c0.2-0.32,0.41-0.63,0.63-0.94c0.38-0.48,0.78-0.92,1.21-1.35c0.64-0.62,1.31-1.19,2.01-1.73c1.39-1.05,2.87-1.98,4.38-2.84
			c1.65-0.93,3.43-1.77,5.25-2.55c-0.13,0.42-0.25,0.84-0.38,1.25c-1.09,3.9-1.97,7.86-2.81,11.82c-0.15,0.81-0.3,1.63-0.42,2.44
			c-0.05,0.16-0.07,0.35-0.06,0.54c-1.22-0.04-2.43-0.13-3.63-0.31C200.56,206.42,199.72,206.25,198.89,206.02z M213.93,206.42
			c-2.23,0.25-4.48,0.42-6.73,0.46c0.14-0.82,0.31-1.64,0.51-2.45c0.74-3.12,1.36-6.27,1.97-9.42c0.3-1.67,0.68-3.33,0.94-5
			c0.05-0.02,0.09-0.04,0.14-0.06l0.05-0.02c0.01,0,0.02-0.01,0.04-0.01c0.83-0.33,1.66-0.65,2.5-0.96
			c1.81-0.66,3.63-1.27,5.47-1.83c-0.02,0.15-0.02,0.32,0,0.51c0.55,3.91,1.61,7.73,2.49,11.57c0.5,1.89,0.93,3.84,1.69,5.64
			C220.01,205.53,216.98,206.07,213.93,206.42z M235.65,201.03c-0.22,0.09-0.52,0.2-0.82,0.32c-1.43,0.54-2.87,1.05-4.33,1.52
			c-1.55,0.49-3.13,0.92-4.71,1.32c-0.36,0.09-0.77,0.19-1.2,0.3c-0.42-1.84-0.74-3.7-1.24-5.53c-1.01-3.88-1.66-7.88-3.11-11.63
			c-0.08-0.22-0.17-0.39-0.27-0.53c0.8-0.23,1.61-0.45,2.42-0.66l0.13-0.03c0.32-0.07,0.64-0.14,0.96-0.21
			c2.26-0.52,4.55-0.97,6.84-1.32c0.02,0.08,0.04,0.15,0.07,0.22c1.83,3.54,4.71,6.41,7.16,9.51c0.98,1.22,2.01,2.41,2.96,3.65
			c0.11,0.14,0.29,0.38,0.48,0.63c-0.61,0.32-1.23,0.63-1.86,0.92C237.98,200.04,236.83,200.55,235.65,201.03z M251.68,189
			c-0.02,0.13-0.05,0.25-0.08,0.37c-0.06,0.2-0.13,0.39-0.21,0.59c-0.11,0.24-0.23,0.47-0.35,0.7c-0.2,0.34-0.42,0.66-0.66,0.97
			c-0.38,0.48-0.79,0.94-1.23,1.37c-0.7,0.68-1.44,1.32-2.22,1.92c-1.26,0.95-2.6,1.79-3.96,2.58c-0.71-0.98-1.48-1.92-2.24-2.86
			c-2.72-3.51-5.83-6.67-8.63-10.11c-0.05-0.06-0.1-0.11-0.15-0.17c0.28-0.04,0.56-0.07,0.84-0.1c1.07-0.12,2.14-0.23,3.21-0.3
			c1.21-0.08,2.42-0.11,3.63-0.09l0.01,0c0.03,0,0.05,0,0.08,0c0.76,0.02,1.58,0.04,2.38,0.1c0.79,0.06,1.57,0.15,2.35,0.27
			c0.83,0.13,1.66,0.29,2.47,0.51c0.57,0.17,1.14,0.36,1.69,0.59c0.37,0.16,0.72,0.34,1.07,0.53c0.24,0.14,0.47,0.3,0.69,0.46
			c0.17,0.14,0.33,0.28,0.49,0.43c0.12,0.12,0.23,0.25,0.33,0.38c0.07,0.1,0.14,0.21,0.21,0.31c0.04,0.08,0.09,0.17,0.12,0.26
			c0.04,0.1,0.07,0.2,0.1,0.3c0.02,0.11,0.05,0.22,0.06,0.33c0.01,0.12,0.02,0.24,0.02,0.36C251.7,188.79,251.69,188.89,251.68,189z
			"/>
		<path d="M235.3,205.85c-0.56,0.31-1.17,0.51-1.73,0.81c-2.47,1.22-5.02,2.31-7.68,3.02c-0.97,0.25-1.96,0.44-2.93,0.68
			c-0.35,0.09-0.78,0.18-1.03,0.46c-0.47,0.58,0.12,1.2,0.75,1.16c3,0.06,5.97-0.68,8.81-1.59c1.53-0.57,3.21-0.92,4.52-1.95
			c0.18-0.13,0.37-0.26,0.56-0.39c0.58-0.37,0.74-1.19,0.36-1.76C236.58,205.78,235.85,205.54,235.3,205.85z"/>
		<path d="M420.94,455.17c-5.75-7.81-16.99-6.7-23.78-0.86c-0.25-3.41-0.53-6.9-1.89-10.09c-2.16-5.35-7.12-8.53-12.89-8.04
			c-7.81,0.77-13.79,6.32-18.14,12.47c0.35-2.41,0.24-4.87-0.08-7.27c-0.49-3.88-2.14-8.04-5.82-9.89
			c-4.31-2.14-9.65-1.48-13.76,0.85c-4.74,2.73-8.08,7.38-10.2,12.34c-0.6,1.46-1.95,5.52-0.43,6.63c0.46,0.25,1.24-0.27,0.77-0.75
			c0.2-2.9,1.65-5.56,3.1-8.03c1.89-3.06,4.21-5.84,7.29-7.79c3.65-2.34,8.72-3.29,12.64-1.07c4.17,2.62,4.47,8.77,4.27,13.22
			c-0.17,1.96-0.65,3.87-1.01,5.8c-0.1,0.66-0.36,1.35-0.07,1.99c0.29,0.6,1.02,0.86,1.62,0.58c0.39-0.18,0.61-0.52,0.83-0.86
			c0.39-0.62,0.76-1.25,1.15-1.88c0.98-1.59,2.02-3.15,3.21-4.6c2.24-2.75,4.79-5.31,7.95-6.97c5.41-2.99,12.5-3.48,15.99,2.53
			c2.1,3.65,2.1,7.98,2.46,12.06c0.15,1.09-0.05,2.54,1.07,3.16c0.92,0.51,1.83-0.09,2.43-0.8c0.76-0.79,1.58-1.52,2.47-2.16
			c4.29-3.12,10.41-4.23,15.09-1.33c1.26,0.84,2.34,1.92,3.43,2.96c0.21,0.22,0.41,0.45,0.6,0.68c0.55,0.66,1.57,0.75,2.24,0.2
			c0.67-0.56,0.74-1.57,0.2-2.23C421.41,455.72,421.18,455.45,420.94,455.17z"/>
		<path d="M390.08,399.66c0.51-2.19-0.23-4.62-1.5-6.45c-3.21-4.84-9.06-4.94-12.27-0.05c-2.99,4.51-1.24,11.96,4.65,12.82
			C385.1,406.74,388.98,403.5,390.08,399.66z M381.45,392.33c3.52-0.13,6.48,3.7,5.27,7.07c-0.85,1.99-3.37,3.11-5.46,3.15
			C375.62,402.37,376.85,393.23,381.45,392.33z"/>
		<path d="M417.57,236.95c-1.2,0.56-2.52,0.57-3.81,0.69c-3.91,0.36-7.84,0.62-11.74,1.09c-1.26,0.18-1.67,1.81-0.54,2.45
			c0.93,0.39,2,0.32,2.99,0.53c2.12,0.37,4.36,0.97,6.58,1.62c6.72,2,11.43,3.29,13.23,10.9c1.25,5.1,1.64,10.35,2.05,15.58
			c0.08,1,0.16,2,0.29,3c0.1,0.63,0.09,1.37,0.59,1.83c0.96,0.86,2.11,0.1,2.34-1c0.41-1.45,0.72-2.93,1.01-4.41
			c0.95-4.73,1.46-9.62,3.24-14.14c3.19-7.34,11.62-9.63,18.7-11.51c2.28-0.61,4.56-1.22,6.85-1.78c1.41-0.28,1.57-2.19,0.23-2.67
			c-1.91-0.49-3.91-0.58-5.85-0.92c-4.35-0.8-8.9-1.47-12.84-3.58c-1.87-1.19-3.08-3.16-3.87-5.18c-1.35-3.51-2.08-7.22-2.69-10.92
			c-0.5-2.93-0.82-5.9-1.51-8.8c-0.35-1.03-0.54-3.27-1.96-3.25c-1.27,0.13-1.45,2.01-1.84,3.01c-0.49,1.51-0.8,3.39-1,5.03
			c-0.39,3.16-0.8,6.31-1.44,9.43c-0.49,2.82-1.25,5.62-2.86,8.03C422.32,234.36,420.15,236.02,417.57,236.95z M426.23,234.86
			c1.93-2.42,2.67-5.55,3.2-8.55c0.4-2.1,0.35-4.25,0.34-6.38c0.28-2.5,0.69-5,1.03-7.5c0.54,5.06,0.98,10.17,2.51,15.05
			c0.85,2.95,1.96,5.95,4.17,8.15c2.25,2.31,5.51,3.11,8.53,3.91c2.31,0.58,4.65,1.05,7.02,1.34c-8.05,2.17-17.66,4.78-21.22,13.18
			c-1.62,3.89-2.27,8.11-3.06,12.22c-0.63-5.49-1.27-13.88-4.5-18.35c-2.25-3.28-5.54-4.65-9.19-5.83
			c-1.44-0.47-2.88-0.92-4.33-1.34c1.39-0.07,2.79-0.18,4.14-0.51c1.04-0.34,2.13-0.4,3.19-0.64
			C421.16,238.93,424.21,237.37,426.23,234.86z"/>
		<path d="M342.58,301.09c2.5-0.44,1.8-3.69-0.98-3.21c-4.96-0.39-9.9,0.55-14.85,0.85c-3.2,0.22-6.4,0.37-9.6,0.54
			c2.16-2.57,4.25-5.21,6.25-7.92c0.65-0.95,3.21-3.96,2.63-5.02c-0.2-0.35-0.7-0.29-0.97-0.05c-3.22,3.49-6.37,7.04-9.46,10.64
			c-0.09,0.1-0.19,0.2-0.28,0.31c-0.14-6.64-0.33-13.28-0.57-19.92c0.31-1.26-1.23-1.62-1.47-0.39c-0.69,7-0.26,14.08-0.31,21.12
			c-2.62-2.46-5.24-4.91-7.81-7.42c-1.43-1.35-2.85-2.71-4.21-4.13c-0.54-0.5-0.93-1.17-1.54-1.59c-0.39-0.2-0.84,0.14-0.83,0.56
			c0.08,0.51,0.45,0.94,0.7,1.37c0.83,1.22,1.84,2.29,2.84,3.37c3.04,3.19,6.14,6.31,9.25,9.42c-7.43,0.33-14.87,0.88-22.27,1.39
			c-0.53,0.21-0.7,0.93-0.33,1.37c1,0.79,2.48,0.48,3.69,0.58c5.93-0.19,11.87-0.23,17.81-0.31c-1.71,1.84-3.4,3.7-4.95,5.68
			c-0.67,0.81-1.31,1.65-1.94,2.48c-0.68,0.65-1.08,1.57-0.3,2.33c0.54,0.5,1.38,0.45,1.88-0.08c0.56-0.58,1.14-1.14,1.67-1.75
			c1.62-1.87,3.16-3.8,4.81-5.64c0.49-0.52,0.98-1.05,1.46-1.57c-0.02,6.77,0.15,13.54,0.43,20.3c0,0.93,1.27,1.36,1.86,0.67
			c0.32-0.33,0.28-0.8,0.29-1.23c0.02-0.72,0.08-1.48,0.12-2.24c0.13-2.56,0.05-5.12-0.02-7.67c-0.04-3.43-0.09-6.85-0.15-10.28
			c2.44,2.43,4.88,4.86,7.29,7.32c0.93,0.98,1.81,2.02,2.76,2.98c0.29,0.28,0.58,0.55,0.87,0.84c0.24,0.27,0.51,0.52,0.89,0.54
			c0.95,0.11,1.56-1.09,0.94-1.8c-0.68-0.85-1.29-1.76-2.03-2.56c-2.71-2.92-5.55-5.71-8.43-8.46c5.37-0.13,10.74-0.34,16.09-0.78
			C336.75,301.57,339.66,301.29,342.58,301.09z"/>
		<path d="M226.45,373.22c0.13,0.86,1.3,1.19,1.87,0.54c0.17-0.18,0.25-0.4,0.28-0.64c0.1-0.71,0.08-1.44,0.07-2.16
			c-0.03-2.31-0.23-4.62-0.37-6.93c-0.25-4.26-0.25-8.53-0.45-12.79c-0.03-0.6-0.06-1.19-0.11-1.79c0.01-0.44-0.33-0.89-0.8-0.68
			c-0.82,0.42-0.67,3.36-0.8,4.31c-0.3,5.08-0.1,10.17,0.15,15.24C226.38,369.96,226.23,371.6,226.45,373.22z"/>
		<path d="M225.93,405.55c0.17,3.82-0.21,7.64,0.1,11.45c0.02,1.05,1.42,1.55,2.1,0.76c0.27-0.29,0.33-0.67,0.32-1.05
			c0.03-0.69,0.1-1.38,0.09-2.08c0.01-2.16,0.03-4.33,0.01-6.49c0-1.88-0.1-3.77-0.19-5.65c-0.13-3.86-0.05-7.73-0.28-11.58
			c-0.13-1.85-0.15-3.73-0.4-5.57c-0.13-0.43-0.74-0.53-0.99-0.15c-0.4,0.91-0.32,1.97-0.44,2.94
			C226.02,393.93,225.75,399.74,225.93,405.55z"/>
		<path d="M221.63,381.4c-2.38,0.08-4.76,0.28-7.12,0.57c-2.39,0.35-4.79,0.69-7.18,1.09c-0.59,0.1-1.18,0.2-1.76,0.31
			c-0.24,0.05-0.51,0.08-0.68,0.27c-0.25,0.28-0.17,0.71,0.15,0.89c0.55,0.24,1.22,0.08,1.82,0.1c1.79-0.1,3.58-0.18,5.37-0.3
			c3.21-0.34,6.48-0.18,9.66-0.76C223.21,383.31,222.97,381.35,221.63,381.4z"/>
		<path d="M232.27,380.56c-0.38,0.23-0.29,0.84,0.13,0.97c0.36,0.13,0.76,0.02,1.13,0.06c2.75,0.03,5.5-0.22,8.24-0.38
			c3.2-0.24,6.42-0.16,9.61-0.52c0.69-0.18,1.59-0.02,2.13-0.55c0.67-0.68,0.08-1.93-0.86-1.85c-5.09,0.16-10.18,0.59-15.22,1.36
			c-1.32,0.21-2.65,0.38-3.96,0.6C233.07,380.35,232.63,380.36,232.27,380.56z"/>
		<path d="M237.62,375.06c1.36-1.16,2.63-2.44,3.88-3.71c1.14-1.16,2.19-2.4,3.22-3.65c0.42-0.17,0.55-0.74,0.25-1.08
			c-0.7-0.7-1.16,0.22-1.66,0.62c-1.27,1.16-2.51,2.35-3.82,3.46c-1.32,1.13-2.65,2.24-3.88,3.47c-0.55,0.41-1.05,1.13-0.51,1.76
			C236,376.92,236.91,375.63,237.62,375.06z"/>
		<path d="M217.57,372.54c1.61,1.47,3.11,3.09,4.89,4.36c0.84,0.6,1.8-0.61,1.05-1.3c-0.58-0.51-1.13-1.07-1.72-1.57
			c-2.5-2.17-4.87-4.5-7.44-6.6c-0.31-0.23-0.62-0.48-0.93-0.71c-0.47-0.26-1,0.32-0.7,0.76
			C214.11,369.37,215.94,370.87,217.57,372.54z"/>
		<path d="M222.16,386.71c-0.28,0.01-0.51,0.16-0.7,0.36c-0.32,0.3-0.66,0.59-0.98,0.9c-0.95,0.89-1.82,1.87-2.68,2.85
			c-1.04,1.17-2.09,2.33-3.09,3.53c-0.38,0.57-2.06,1.98-0.82,2.43c0.53,0.08,0.94-0.41,1.32-0.72c0.39-0.36,0.77-0.73,1.15-1.1
			c2.21-2.2,4.38-4.45,6.54-6.7C223.47,387.7,222.96,386.64,222.16,386.71z"/>
		<path d="M234.09,386.82c-0.24-0.21-0.49-0.42-0.75-0.61c-0.24-0.18-0.5-0.44-0.83-0.33c-0.36,0.11-0.43,0.57-0.22,0.85
			c0.69,1.02,1.59,1.88,2.4,2.8c1.51,1.65,3.01,3.3,4.63,4.85c0.61,0.59,1.23,1.16,1.82,1.77c0.16,0.18,0.45,0.54,0.76,0.53
			c0.66,0.08,1.1-0.77,0.66-1.26c-0.73-0.81-1.4-1.66-2.17-2.43C238.28,390.94,236.27,388.8,234.09,386.82z"/>
		<path d="M207.41,450.69c-7.18-7.52-18.48-2.49-24.55,3.95c0.94-3.34,1.79-6.85,1.33-10.34c-0.39-3.64-2.89-7.32-6.72-7.83
			c-6.42-0.51-11.87,4.56-15.82,9.07c-2.35,2.86-4.39,6.1-5.4,9.68c-0.74,2.04,1.52,2.21,1.28,0.82
			c2.31-7.07,11.06-17.03,18.86-17.51c3.24-0.02,5.36,3.11,5.62,6.08c0.37,3.21-0.52,6.39-1.4,9.45c-0.34,1.18-0.7,2.36-1.03,3.54
			c-0.42,1-0.34,2.54,1.1,2.37c0.65-0.11,0.98-0.73,1.38-1.18c1.22-1.47,2.4-2.7,3.88-3.99c5.19-4.68,14.22-8.15,19.55-1.86
			c1.54,1.95,2.31,4.44,3.15,6.76c0.57,1.68,3.09,0.85,2.58-0.83C210.16,456.08,209.61,452.86,207.41,450.69z"/>
		<path d="M97.17,413.06c-1.45-0.18-2.93-0.1-4.4-0.21c-4.41-0.26-8.84-0.49-13.19-1.32c-3.88-0.74-6.21-2.29-8.59-5.41
			c-2.94-3.92-4.59-8.58-5.79-13.29c-1.37-4.74-2.31-9.61-3.9-14.29c-0.38-0.96-0.56-2.19-1.49-2.77c-0.54-0.29-1.22-0.22-1.68,0.19
			c-0.59,0.55-0.72,1.39-0.86,2.15c-0.31,1.78-0.46,3.58-0.61,5.39c-0.7,6.96-0.23,14.29-3.15,20.81
			c-2.07,4.81-6.68,7.66-11.64,8.78c-2.06,0.52-4.18,0.7-6.24,1.21c-0.7,0.14-1.41,0.25-2.12,0.35c-0.27,0.04-0.51,0.18-0.69,0.38
			c-1.74,0.25-3.49,0.46-5.24,0.6c-0.96,0.15-2.32-0.07-2.88,0.9c-0.35,0.64,0.04,1.49,0.75,1.64c0.73,0.13,1.5-0.03,2.23-0.04
			c5.04-0.34,10.11-0.16,15.11,0.52c2.82,0.47,5.64,1.46,7.91,3.24c0.93,0.8,1.64,1.82,2.25,2.88c1.16,2.13,1.84,4.48,2.44,6.82
			c1.41,5.79,1.85,11.76,2.12,17.7c0.08,1.78,0.13,3.55,0.24,5.33c0.08,0.83-0.01,1.73,0.44,2.46c0.58,0.94,2,0.92,2.61,0.03
			c0.58-0.91,0.55-2.05,0.73-3.09c0.15-1.18,0.24-2.36,0.34-3.54c0.3-3.7,0.6-7.41,1.15-11.08c0.93-6.64,3.84-12.76,9.72-16.35
			c1.59-1,3.27-1.83,5.02-2.51c4.49-1.64,9.13-2.81,13.85-3.56c1.51-0.24,3.01-0.51,4.51-0.76c0.58-0.1,1.28-0.18,1.74-0.59
			C98.81,414.88,98.35,413.25,97.17,413.06z M60.07,440.29c-0.76-6.14-1.92-13.82-5.72-18.84c-2.36-3.02-6.18-4.46-9.84-5.17
			c-0.54-0.1-1.08-0.17-1.62-0.23c2.28-0.57,4.41-1.56,6.52-2.58c4.76-2.38,7.9-6.6,8.81-11.85c0.91-5.4,1.23-10.87,1.53-16.33
			c1.66,6.76,2.96,13.83,6.6,19.87c1.96,3.25,4.56,6.28,8.05,7.94c3.29,1.43,6.92,1.71,10.44,2.04
			C70.24,418.56,61.94,424.73,60.07,440.29z"/>
		<path d="M65.24,276.18c-0.17-4.29-0.45-8.57-0.93-12.84c-0.25-3.23-0.85-6.43-0.98-9.66c0.12-0.32-0.1-0.73-0.47-0.73
			c-0.6-0.04-0.75,0.71-0.8,1.18c-0.36,6.24,0.27,12.51,0.22,18.75c0.01,4.61,0.05,9.23,0.59,13.81c0.16,1.78,2.72,1.63,2.69-0.13
			c-0.06-0.93-0.01-1.86,0.01-2.8C65.57,281.23,65.37,278.7,65.24,276.18z"/>
		<path d="M65.39,322.31c-0.05-4.39-0.05-8.78-0.37-13.15c-0.18-2.05-0.25-4.13-0.62-6.16c-0.15-0.38-0.62-0.45-0.87-0.13
			c-0.3,0.54-0.19,1.22-0.26,1.82c-0.15,4.95-0.42,9.91-0.65,14.86c-0.17,4.46-0.14,8.92-0.24,13.38
			c-0.18,4.32,0.16,8.63,0.29,12.94c0.15,1.78,2.71,1.64,2.69-0.13c-0.07-2.32,0.07-4.64,0.11-6.96
			C65.55,333.28,65.52,327.8,65.39,322.31z"/>
		<path d="M27.35,299.56C27.35,299.56,27.34,299.56,27.35,299.56c-0.06,0-0.11,0-0.17,0C27.18,299.55,27.35,299.56,27.35,299.56z"/>
		<path d="M38.01,299.46c5.46-0.13,10.95,0.23,16.37-0.48c1.06-0.12,2.13-0.2,3.2-0.28c2.12-0.17,1.95-3.28-0.16-3.22
			c-9.44,0.46-18.89,0.55-28.3,1.48c-1.88,0.17-3.77,0.24-5.63,0.54c-0.87,0.05-1.97,0.77-1.07,1.61c1.54,0.55,3.3,0.32,4.92,0.46
			C30.9,299.62,34.45,299.51,38.01,299.46z"/>
		<path d="M94.43,296.15c1.48-0.07,2.85-0.38,4.34-0.45c1.82-0.17,1.67-2.77-0.13-2.75c-1.16,0.09-2.32,0.02-3.49,0.01
			c-3.57,0.08-7.12,0.39-10.68,0.63c-3.04,0.23-6.08,0.37-9.11,0.64c-0.56,0.05-1.12,0.11-1.69,0.18c-0.52,0.09-1.1,0.11-1.52,0.45
			c-0.32,0.26-0.24,0.83,0.15,0.96c0,0,0,0,0,0c0.21,0.08,0.46,0.07,0.68,0.08c2.02,0.12,4.04,0.16,6.05,0.23
			C84.16,296.35,89.3,296.33,94.43,296.15z"/>
		<path d="M73.37,289.56c0.63-0.84,1.27-1.68,1.91-2.52c0.96-1.24,1.86-2.54,2.73-3.84c0.66-0.97,1.32-1.93,1.91-2.94
			c0.17-0.33,0.4-0.65,0.46-1.02c0.02-0.56-0.6-0.69-0.96-0.34c-0.71,0.67-1.3,1.46-1.94,2.2c-2.05,2.37-3.86,4.71-5.75,7.29
			c-0.33,0.44-0.2,1.09,0.24,1.4C72.42,290.12,73.04,290,73.37,289.56z"/>
		<path d="M59.39,289.93c-2.45-2.77-4.9-5.53-7.42-8.23c-0.29-0.33-0.58-0.65-0.89-0.96c-0.48-0.55-1.28-1.31-1.86-0.44
			c-0.48,0.91,0.75,2.25,1.23,3.02c1.71,2.2,3.46,4.38,5.43,6.35c0.64,0.6,1.25,1.21,1.86,1.84C58.77,292.47,60.3,291,59.39,289.93z
			"/>
		<path d="M57.56,302.36c-1.95,1.7-4.01,3.26-5.84,5.09c-1.38,1.45-3.15,2.8-3.94,4.67c0.04,1.24,1.39,0.74,1.98,0.19
			c1.12-0.85,2.22-1.74,3.32-2.62c2.12-1.71,3.94-3.75,6.01-5.51C60.27,303.17,58.76,301.38,57.56,302.36z"/>
		<path d="M83.08,316.06c0.61,0.63,1.77,0.07,1.7-0.79c-0.01-0.27-0.14-0.5-0.32-0.69c-0.39-0.4-0.69-0.71-1.09-1.13
			c-2.93-3.13-5.84-6.36-8.91-9.37c-0.61-0.53-1.15-1.24-1.92-1.53c-0.39-0.09-0.79,0.23-0.76,0.63c0.03,0.3,0.2,0.56,0.36,0.81
			C75.33,308.39,79.28,312.19,83.08,316.06z"/>
		<path d="M183.62,310.41c0.02-2.1-0.59-4.23-2.18-5.66c-2.94-3.39-8.56-2.38-10.63,1.44c-2.31,3.97,0.02,9.01,4.51,9.88
			C178.99,316.95,183.33,314.31,183.62,310.41z M175.36,305.15c0.57,0.29,1.28,0.07,1.9,0.23c0.74,0.13,1.44,0.44,2.02,0.9
			c1.27,0.97,1.68,2.7,1.58,4.23c-0.4,1.81-2.26,3.13-4.07,3.13C171.68,313.49,170.69,307,175.36,305.15z"/>
		<path d="M95.25,108.81c0.59,0.27,1.28,0.3,1.93,0.37c6.77,0.71,13.78,0.78,20.21,3.25c8.81,3.81,8.7,18.34,8.93,26.54
			c0.05,3.04-0.01,6.08,0.11,9.11c0.04,0.79,0.07,1.58,0.16,2.37c0.04,0.42,0.16,0.83,0.43,1.16c0.7,0.9,2.18,0.45,2.45-0.6
			c0.43-1.44,0.72-2.91,1.06-4.38c0.82-3.72,1.55-7.46,2.39-11.18c1.46-6.45,3.18-13.62,8.9-17.65c1.61-1.15,3.42-1.99,5.26-2.72
			c4.23-1.67,8.66-2.74,13.1-3.67c1.14-0.25,2.28-0.48,3.4-0.79c1.22-0.35,1.4-1.98,0.28-2.56c-0.33-0.18-0.74-0.24-1.11-0.28
			c-6.92-0.71-14.34-0.29-20.64-3.68c-3.13-1.9-4.41-5.26-5.24-8.65c-0.54-2.07-0.86-4.19-1.21-6.3c-0.67-3.92-1.21-7.87-2.02-11.77
			c-0.5-2.29-0.84-4.64-1.78-6.8c-0.38-0.89-1.45-0.97-1.97-0.2c-0.56,0.96-0.69,2.1-0.87,3.18c-0.53,3.81-0.84,7.64-1.19,11.47
			c-0.43,3.81-0.65,7.76-2.18,11.32c-1.29,2.98-3.63,5.4-6.45,6.98c-1.79,1-3.83,1.43-5.85,1.64c-3.84,0.41-7.71,0.32-11.55,0.51
			c-1.01,0.06-2.01,0.16-3.02,0.27c-1.23,0.19-2.66,0.06-3.73,0.75C94.29,107.06,94.38,108.39,95.25,108.81z M126.73,102.76
			c2.94-3.2,3.35-7.78,3.45-11.93c0.01-0.78,0-1.55-0.01-2.33c0.11-0.72,0.2-1.44,0.28-2.17c0.32-2.88,0.39-5.78,0.53-8.67
			c0.64,4.26,1.13,8.54,1.92,12.78c0.54,3.06,1.12,6.15,2.23,9.07c1.09,2.97,3.16,5.62,5.98,7.12c4.28,2.17,9.13,2.82,13.85,3.21
			c-19.55,4.96-21.75,11.88-25.57,30.38c-0.18-8.77-0.27-21.65-7.1-27.99c-2.8-2.64-6.68-3.51-10.36-4.13
			c-0.25-0.04-0.5-0.09-0.75-0.13C116.63,107.64,122.73,106.8,126.73,102.76z"/>
		<path d="M230.37,103c-0.23-5.16,0.52-10.35,2.2-15.24c2.8-10.17,11.36-15.57,20.58-19.39c4.71-1.95,9.57-3.65,13.92-6.37
			c7.27-4.22,13.56-14.29,7.91-22.12c-0.3-0.56-1.15-0.77-1.42-0.08c-0.09,1.95,0.91,3.88,0.8,5.88
			c-0.17,5.77-4.52,10.55-9.26,13.36c-7.49,4.32-16.17,6.19-23.39,11.04c-4.28,2.87-8.32,6.49-10.57,11.21
			c-3.24,6.83-4.98,14.42-4.34,21.99C227.01,105.63,230.53,105.31,230.37,103z"/>
		<path d="M248.35,90.29c-2.02,3.58-3.18,7.7-3.06,11.82c0.1,0.96-0.01,2.12,0.77,2.83c1.18,1.07,3.11,0.08,2.97-1.49
			c0.04-1.29-0.03-2.58,0.12-3.86c0.37-2.68,1.22-5.3,2.59-7.64c2.52-4.37,6.77-7.27,11.03-9.79c6.33-3.65,13.24-6.39,19.01-10.96
			c3.12-2.37,5.43-5.63,7.02-9.19c2.96-6.41,3.55-14.06-0.72-20.04c-0.28-0.36-0.54-0.76-0.9-1.05c-0.24-0.15-0.54-0.09-0.7,0.14
			c-0.16,0.23-0.13,0.54-0.1,0.81c0.48,2.09,1.25,4.12,1.53,6.26c0.37,2.63,0.19,5.31-0.5,7.88c-1.01,3.56-2.71,6.98-5.13,9.79
			c-2.18,2.4-4.93,4.18-7.69,5.82C265.46,77.02,253.9,80.61,248.35,90.29z"/>
		<path d="M275.52,90.42c-3.15,2.13-5.78,5.09-7.3,8.59c-0.73,1.69-1.24,3.47-1.53,5.29c-0.09,0.62-0.2,1.26-0.23,1.89
			c-0.04,1.02,0.73,1.91,1.76,1.97c0.9,0.05,1.79-0.6,1.94-1.51c0.04-0.27,0.07-0.55,0.11-0.82c0.42-3.81,2-7.5,4.78-10.18
			c1.46-1.46,3.21-2.58,4.98-3.62c3.21-1.87,6.5-3.6,9.71-5.47c4.2-2.44,8.34-5.7,11.52-9.44c4.19-4.9,6.55-11.25,7.03-17.64
			c0.28-3.78-0.33-7.55-1.22-11.22c-0.27-1.15-0.58-2.29-0.91-3.42c-0.12-0.45-0.23-0.9-0.31-1.36c0-0.18-0.09-0.36-0.29-0.46
			c-0.24-0.12-0.49-0.03-0.64,0.14c0,0,0,0,0,0c-0.51,0.8-0.39,1.83-0.42,2.74c0.02,1.09,0.06,2.18,0.15,3.26
			c0.35,3.65,0.68,7.33,0.17,10.99c-0.56,3.72-1.73,7.38-3.57,10.67c-2.66,4.54-6.67,8.14-11.01,11.05
			C285.49,84.93,280.26,87.28,275.52,90.42z"/>
		<path d="M178.28,74.13c0.4,0.18,0.83,0.01,1.2-0.16c0.36-0.15,0.72-0.29,1.07-0.45c2.04-0.95,4.03-2,6-3.07
			c3.34-1.82,6.61-3.76,9.9-5.66c-0.18,3.22-0.31,6.44-0.47,9.66c-0.14,2-0.19,4-0.08,6c0.01,0.9-0.24,2.16,1,2.28
			c0.57,0.03,1.12-0.43,1.13-1.01c0.01-0.64,0.06-1.27,0.13-1.91c0.12-0.94,0.24-1.87,0.32-2.81c0.35-3.91,0.5-7.82,0.63-11.74
			c1.13,1,2.26,2,3.38,3c3.17,2.7,6.16,5.6,9.31,8.32c0.88,0.83,2.44,0.04,2.3-1.15c-0.05-0.78-0.8-1.18-1.27-1.71
			c-0.64-0.65-1.27-1.31-1.93-1.94c-2.04-1.95-4.24-3.73-6.41-5.54c-1.43-1.19-2.86-2.39-4.29-3.58c3.07-1.73,6.16-3.44,9.27-5.1
			c1.86-0.99,3.75-1.92,5.49-3.12c0.43-0.22,0.85-0.48,1-0.96c0.42-1.12-0.87-2.23-1.92-1.67c-1.03,0.5-2.13,0.83-3.13,1.4
			c-3.78,1.93-7.42,4.07-11.07,6.25c-0.18,0.11-0.36,0.22-0.54,0.33c0.04-1.09,0.09-2.18,0.15-3.27c0.09-3.07,0.14-6.14,0.11-9.21
			c0-0.87-0.06-1.73-0.09-2.6c0.01-0.21-0.1-0.43-0.31-0.53c-1.2-0.41-1.1,2.02-1.24,2.78c-0.32,3-0.58,6.01-0.82,9.02
			c-0.13,1.27-0.24,2.55-0.34,3.82c-2.3-1.94-4.6-3.9-6.87-5.87c-1.58-1.38-3.2-2.69-4.87-3.95c-0.53-0.34-0.95-0.9-1.55-1.11
			c-0.31-0.04-0.65,0.16-0.65,0.51c0.06,0.61,0.56,1.08,0.92,1.55c2.86,3.09,6.08,5.81,9.13,8.71c0.88,0.83,1.77,1.64,2.66,2.46
			c-5.13,3.14-10.22,6.34-15.25,9.62c-0.67,0.45-1.32,0.94-2,1.38C177.88,73.28,177.83,73.93,178.28,74.13z"/>
		<path d="M426.51,91.89c0.2,1.89,2.9,1.86,3.06-0.02c0.23-3.7,0.14-7.43,0.17-11.14c-0.04-3.07-0.22-6.16-0.26-9.23
			c-0.12-4.48-0.19-8.98-0.35-13.45c-0.08-0.24-0.31-0.41-0.56-0.42c-0.6-0.03-0.87,0.6-0.94,1.1c-0.19,0.87-0.26,1.76-0.35,2.64
			c-0.54,6.18-0.68,12.39-0.6,18.59C426.74,83.93,426.37,87.91,426.51,91.89z"/>
		<path d="M428.18,110.07c-0.29,3.1,0.14,6.23,0.1,9.34c0.04,8.2,0.69,16.37,1.14,24.55c0.05,1.46,0.11,2.91,0.22,4.36
			c0.11,0.8-0.2,1.81,0.5,2.4c0.54,0.49,1.44,0.43,1.91-0.12c0.19-0.21,0.34-0.52,0.34-0.82c0-0.6-0.01-1.2,0.02-1.8
			c0.19-4.66-0.21-9.32-0.62-13.96c-0.71-7.98-1.32-15.99-2.85-23.87C428.9,109.76,428.29,109.69,428.18,110.07z"/>
		<path d="M389.27,105.74c0.86,0.1,1.74,0.01,2.6-0.03c4.21-0.29,8.4-0.75,12.59-1.13c4.09-0.41,8.23-0.5,12.25-1.43
			c1.11-0.19,1.42-1.78,0.47-2.38c-0.51-0.37-1.13-0.17-1.69-0.09c-0.74,0.1-1.48,0.16-2.22,0.25c-4.15,0.44-8.28,0.94-12.4,1.55
			c-3.12,0.46-6.24,0.96-9.35,1.48c-0.91,0.21-1.91,0.25-2.77,0.56C388.12,105,388.61,105.71,389.27,105.74z"/>
		<path d="M434.37,102.8c1.18,0.25,2.45-0.07,3.65-0.07c4.51-0.25,9.01-0.54,13.51-0.88c4.53-0.24,9.06-0.56,13.57-1.09
			c1.84-0.16,1.61-2.92-0.21-2.81c-1.87,0.16-3.74,0.13-5.62,0.27c-6.01,0.4-11.94,1.26-17.9,2.13c-1.89,0.26-3.84,0.53-5.72,0.98
			c-0.47,0.14-1.01,0.16-1.42,0.45C433.91,102.07,433.99,102.6,434.37,102.8z"/>
		<path d="M437.1,94.87c0.44,0.3,1.06,0.18,1.36-0.26c0.55-0.84,1.18-1.62,1.74-2.46c1.4-2.16,2.81-4.31,4.21-6.47
			c0.45-0.71,0.87-1.43,1.29-2.15c0.33-0.57,0.67-1.15,0.89-1.78c0.1-0.22,0-0.5-0.21-0.6c-0.6-0.29-1.21,0.9-1.58,1.27
			c-0.47,0.6-0.96,1.19-1.43,1.79c-2.01,2.61-4.07,5.18-5.73,8.03C437.24,93.03,436.05,94.08,437.1,94.87z"/>
		<path d="M410.29,83.87c1.65,1.85,3.35,3.67,5.02,5.5c2.08,2.27,4.01,4.67,6.03,7c0.79,0.9,2.2-0.2,1.54-1.18
			c-1.67-2.4-3.7-4.52-5.67-6.68c-1.94-1.96-3.86-3.97-6.04-5.66c-0.33-0.22-0.65-0.54-1.07-0.49c-0.27,0.04-0.44,0.34-0.39,0.6
			C409.81,83.32,410.08,83.59,410.29,83.87z"/>
		<path d="M419.55,109.19c-4.18,3.62-7.95,7.72-11.38,12.05c-0.23,0.1-0.43,0.3-0.51,0.54c-0.12,0.34-0.01,0.72,0.25,0.96
			c0.45,0.41,1.23,0.22,1.43-0.35c2.13-1.84,3.93-4.01,5.93-5.99c1.91-1.85,3.83-3.69,5.75-5.54
			C422.11,109.89,420.65,108.24,419.55,109.19z"/>
		<path d="M449.22,124.23c-0.53-0.63-1.05-1.26-1.56-1.91c-3.35-4.17-6.76-8.33-10.79-11.86c-0.31-0.22-0.57-0.53-0.91-0.7
			c-0.27-0.1-0.55,0.08-0.61,0.35c-0.05,0.42,0.33,0.74,0.52,1.08c1.69,2.32,3.64,4.43,5.41,6.68c2.02,2.66,4.12,5.26,6.35,7.76
			C448.58,126.66,450.1,125.31,449.22,124.23z"/>
		<path d="M455.29,185.79c6.6,0.63,12.99-6.4,9.7-12.77c-0.39-0.81-0.93-1.56-1.63-2.14c-0.13-0.3-0.34-0.57-0.57-0.79
			c-1.25-1.27-3.03-1.84-4.77-1.96c-1.89-0.11-3.71,0.68-5.15,1.86c-1.2,0.92-2.31,2.04-2.91,3.45c-0.8,1.91-1.38,4.03-1.06,6.11
			C449.42,182.83,451.97,185.39,455.29,185.79z M452.08,173.91c0.39-0.75,0.98-1.35,1.61-1.89c1.3-1.14,2.95-2.05,4.73-1.81
			c0.21,0.55,0.87,0.59,1.32,0.86c0.96,0.56,1.9,1.25,2.55,2.17c2.83,4.56-1.13,9.77-6.03,10.12c-2.47,0.05-4.68-1.74-5.17-4.16
			C450.8,177.4,451.32,175.54,452.08,173.91z"/>
		<path d="M43.01,164.2c4.41-0.55,8.75-1.49,13.16-2.01c-2.89,6.01-7.1,11.25-10.37,17.04c-1.03,2.69,1.7,3.49,3.51,1.84
			c4.36-3.15,8.24-6.91,12.4-10.32c1.39,4.03,1.39,8.38,1.83,12.58c0.37,2.45,0.11,5.31,1.59,7.41c4.55,3.98,7.87-13.29,8.45-16
			c3.51,2.52,6.64,5.55,10.24,7.96c1.44,0.83,2.8,2.1,4.48,2.37c5.58-0.86-3.58-13.49-4.78-16.12c4.53-2.71,9.69-4.25,14.44-6.53
			c1.37-0.81,5.3-1.86,5.69-3.28c0.43-2.67-3.36-2.68-5.17-3.01c-3.42-0.4-6.87-0.49-10.31-0.78c1.44-3.62,3.36-7.04,5.08-10.54
			c1.04-2.09,2.08-4.18,3.02-6.31c0.85-1.4,0.35-3.35-1.58-2.66c-1.45,0.73-2.65,1.88-3.92,2.88c-3.43,2.84-6.94,5.59-10.55,8.21
			c-0.77-4.93-1.52-9.91-3.19-14.63c-1.06-3.57-3.37-1.76-4.15,0.81c-1.89,5.19-3.25,10.51-5.41,15.61
			c-4.23-5.35-8.07-11.17-13.23-15.68c-1.18-0.85-2.6,0.04-2.44,1.46c0.42,3.12,1.59,6.13,2.72,9.06c1.39,3.42,3.24,6.62,4.79,9.96
			c-5.73,1.75-11.28,4.02-16.72,6.53c-1.45,0.71-5.03,1.82-3.23,3.92C40.41,164.69,41.81,164.28,43.01,164.2z M60.04,155.47
			c2.51-0.76,1.13-2.62,0.36-4.2c-0.61-1.28-1.28-2.68-1.95-4.07c-1.69-3.42-3.28-7.19-4.16-10.96c3.12,3.35,5.91,6.79,8.86,10.33
			c0.75,0.79,4.43,5.82,5.17,3.4c1.56,0.16,1.6-1.99,2.13-3.03c1.67-4.64,2.83-9.46,4.68-14.03c1,3.36,1.67,6.79,2.2,10.26
			c0.32,1.78,0.41,3.64,1.04,5.35c1.35,2.48,3.77-0.57,5.21-1.46c3.18-2.43,6.28-4.97,9.45-7.42c-1.53,2.89-3.11,5.75-4.62,8.66
			c-0.84,2.01-4.49,7.49-2.68,9.24c0.64,0.66,1.59,0.66,2.44,0.7c3.64,0.19,7.3,0.34,10.91,0.86
			c-26.41,11.47-18.28,5.58-11.63,22.96c-2.77-1.92-5.4-4.03-7.98-6.19c-1.38-1.12-2.78-2.23-4.25-3.24
			c-1.17-0.98-3.11-1.52-3.8,0.27c-1.06,5.32-1.81,10.96-4.66,15.74c-1.05-3.8-0.16-20.77-4.76-20.89c-1.49,0.1-2.36,1.62-3.52,2.41
			c-2.46,2.09-5.16,4.45-7.74,6.52c1.41-2.62,9.65-14.2,8.22-16.25c-0.84-1.33-2.56-0.37-3.79-0.33c-3.75,0.52-7.47,1.26-11.22,1.8
			C49.05,159.34,54.57,157.2,60.04,155.47z"/>
		<path d="M464.75,391.42c-5.9,0.85-11.63,2.63-17.47,3.81c2.66-3.98,4.46-8.47,5.8-13.04c0.3-0.79,0.14-1.93-0.85-2.07
			c-1.65,0.01-2.82,1.6-4,2.57c-3.17,3.02-6.22,6.16-8.99,9.55c-0.68-5.15-1.18-10.44-2.99-15.34c-4.25-5.3-4.49,12.44-4.53,14.32
			c-3.46-1.77-7.06-3.24-10.75-4.46c-1.05-0.35-2.11-0.68-3.16-1.03c-1.12-0.46-3-1.04-3.27,0.69c0.09,1.65,1.78,2.68,2.78,3.84
			c2.45,2.47,4.92,4.78,7.52,7.12c-5.83,2.83-11.82,5.21-17.5,8.39c-0.46,0.39-0.7,0.93-0.58,1.53c0.22,1.12,1.55,1.15,2.46,1.15
			c5.41-0.12,10.75-1.21,16.02-2.34c-3.61,4.57-6.77,9.46-10.01,14.29c-1.05,1.48-3.41,4.91-0.33,5.52
			c1.18,0.01,2.06-0.93,2.98-1.54c1.84-1.36,3.66-2.72,5.47-4.12c3.31-2.52,6.57-5.12,9.71-7.85c1.21,3.18,6.82,19.42,9.66,19.84
			c4.63-0.08,0.73-17.44,0.55-20.67c5.76,1.49,11.58,2.77,17.51,3.36c1.61,0.03,3.88,0.89,5.16-0.39c1.58-2.62-3.24-4.4-4.98-5.4
			c-3.64-1.78-7.41-3.26-11.11-4.9c5.35-3.15,10.84-6.11,15.73-9.96C467.3,393.31,466.83,391.17,464.75,391.42z M452.15,400.1
			c-1.52,1.1-7.9,3.45-4.81,5.75c4.72,2.09,9.63,3.82,14.11,6.41c-5.53-0.67-11.04-1.5-16.44-2.85c-6.13-1.96-4.22,2.44-3.62,6.33
			c0.76,4.29,1.69,8.96,1.29,13.45c-2.09-4.29-3.82-8.8-5.4-13.31c-0.57-1.6-1.11-3.2-1.73-4.78c-0.34-1.19-1.43-2.57-2.78-1.8
			c-4.58,4.03-9.25,8-14.21,11.58c2.86-4.26,5.66-8.54,8.8-12.61c0.81-1.19,2-2.23,2.39-3.64c0.25-1.37-1.2-2.15-2.34-1.54
			c-4.88,1.53-9.97,2.29-15.03,2.93c19.89-10.19,19.68-4.47,6.18-17.79c3.06,0.93,6.07,2.01,8.99,3.32
			c1.88,0.62,6.41,4.28,6.16,0.02c0.2-4.1,0.2-8.26,1.22-12.27c1.36,4.76,2.03,9.67,2.93,14.53c-0.68,0.86,0.14,1.98,1.1,2.08
			c0.83-0.13,1.93-2.13,2.64-2.79c2.76-3.37,5.75-6.55,8.84-9.61c-1.49,4.02-3.43,7.82-5.72,11.43c-0.6,0.84-0.84,2.23,0.3,2.73
			c1.39,0.36,2.84-0.41,4.23-0.57c4.05-0.83,8.07-1.81,12.12-2.66C458.41,396.47,455.28,398.32,452.15,400.1z"/>
	</g>
</g>
</svg>
