<?xml version="1.0" encoding="utf-8"?>
<!-- Generator: Adobe Illustrator 27.3.1, SVG Export Plug-In . SVG Version: 6.00 Build 0)  -->
<svg version="1.1" id="Layer_1" xmlns="http://www.w3.org/2000/svg" xmlns:xlink="http://www.w3.org/1999/xlink" x="0px" y="0px"
	 viewBox="0 0 500 500" style="enable-background:new 0 0 500 500;" xml:space="preserve">
<style type="text/css">
	.st0{fill:#FAFBFC;}
</style>
<g>
	<path class="st0" d="M252.38,224.01c0,0.33-0.06,0.66-0.18,0.99l-3.69,9.74l-2.12,5.6l-2.52,6.65c-0.55,1.45-2.16,2.17-3.61,1.63
		c-0.05-0.02-0.1-0.04-0.14-0.06c-1.35-0.59-2.01-2.15-1.48-3.55l1.77-4.67l2.12-5.6l4.44-11.72c0.55-1.44,2.16-2.17,3.61-1.63
		c0.37,0.14,0.68,0.34,0.95,0.6C252.07,222.51,252.38,223.25,252.38,224.01z"/>
	<path class="st0" d="M238.97,226.62L238.97,226.62c-1.45-0.55-2.17-2.16-1.63-3.61h0c0.55-1.45,2.16-2.17,3.61-1.63l0,0
		c1.45,0.55,2.17,2.16,1.63,3.61l0,0C242.03,226.44,240.41,227.17,238.97,226.62z"/>
	<path class="st0" d="M263.31,237.54c0,0.77-0.31,1.47-0.82,1.98c-0.51,0.51-1.21,0.82-1.98,0.82H247.4l1.91-5.06l0.2-0.54h10.99
		C262.05,234.74,263.31,235.99,263.31,237.54z"/>
</g>
</svg>
